<svg width="264" height="40" viewBox="0 0 264 40" fill="none" xmlns="http://www.w3.org/2000/svg">
<path d="M4.095 30.813H6.435V32.022H4.095V34.557H2.847V32.022H0.52V30.813H2.847V28.252H4.095V30.813ZM13.9767 28.837C13.9767 29.253 13.8944 29.617 13.7297 29.929C13.5651 30.241 13.3397 30.4967 13.0537 30.696C12.7764 30.8867 12.4557 31.0253 12.0917 31.112V31.151C12.7937 31.2377 13.3224 31.4673 13.6777 31.84C14.0417 32.2127 14.2237 32.7067 14.2237 33.322C14.2237 33.8593 14.1024 34.3403 13.8597 34.765C13.6171 35.1897 13.2357 35.5233 12.7157 35.766C12.2044 36.0087 11.5414 36.13 10.7267 36.13C10.2327 36.13 9.78639 36.0867 9.38773 36C8.98906 35.922 8.60339 35.7963 8.23073 35.623V34.18C8.61206 34.3793 9.00639 34.531 9.41373 34.635C9.82106 34.739 10.2024 34.791 10.5577 34.791C11.2337 34.791 11.7104 34.6567 11.9877 34.388C12.2651 34.1107 12.4037 33.7293 12.4037 33.244C12.4037 32.932 12.3301 32.6763 12.1827 32.477C12.0441 32.2777 11.8187 32.1303 11.5067 32.035C11.2034 31.931 10.7874 31.879 10.2587 31.879H9.58273V30.566H10.2717C10.7571 30.566 11.1427 30.5053 11.4287 30.384C11.7234 30.2627 11.9357 30.0937 12.0657 29.877C12.1957 29.6603 12.2607 29.409 12.2607 29.123C12.2607 28.7503 12.1481 28.46 11.9227 28.252C11.7061 28.044 11.3897 27.94 10.9737 27.94C10.6964 27.94 10.4364 27.9747 10.1937 28.044C9.95106 28.1133 9.73439 28.2043 9.54373 28.317C9.35306 28.421 9.18406 28.5337 9.03673 28.655L8.25673 27.524C8.48206 27.3507 8.73339 27.1947 9.01073 27.056C9.29673 26.9087 9.61306 26.796 9.95973 26.718C10.3064 26.6313 10.6964 26.588 11.1297 26.588C12.0397 26.588 12.7417 26.7917 13.2357 27.199C13.7297 27.5977 13.9767 28.1437 13.9767 28.837ZM16.9929 36L20.2949 28.135H16.0049V26.718H22.1409V27.823L18.8259 36H16.9929ZM27.0291 30.163C27.5751 30.163 28.0561 30.2713 28.4721 30.488C28.8881 30.7047 29.2131 31.021 29.4471 31.437C29.6898 31.8443 29.8111 32.347 29.8111 32.945C29.8111 33.6037 29.6811 34.1713 29.4211 34.648C29.1611 35.1247 28.7755 35.493 28.2641 35.753C27.7615 36.0043 27.1331 36.13 26.3791 36.13C25.9198 36.13 25.4865 36.0867 25.0791 36C24.6718 35.9133 24.3208 35.7877 24.0261 35.623V34.167C24.3295 34.3403 24.6935 34.4833 25.1181 34.596C25.5428 34.7087 25.9415 34.765 26.3141 34.765C26.6781 34.765 26.9901 34.7087 27.2501 34.596C27.5101 34.4747 27.7095 34.2927 27.8481 34.05C27.9868 33.7987 28.0561 33.4823 28.0561 33.101C28.0561 32.581 27.9088 32.1867 27.6141 31.918C27.3195 31.6493 26.8645 31.515 26.2491 31.515C26.0238 31.515 25.7855 31.5367 25.5341 31.58C25.2828 31.6233 25.0748 31.6667 24.9101 31.71L24.1951 31.32L24.5331 26.718H29.2131V28.148H26.0281L25.8591 30.293C25.9978 30.267 26.1538 30.241 26.3271 30.215C26.5091 30.1803 26.7431 30.163 27.0291 30.163ZM35.6242 32.438C35.6242 31.7273 35.6848 31.034 35.8062 30.358C35.9275 29.682 36.1182 29.0363 36.3782 28.421C36.6382 27.8057 36.9718 27.238 37.3792 26.718H38.8352C38.4712 27.2553 38.1635 27.836 37.9122 28.46C37.6695 29.084 37.4875 29.7297 37.3662 30.397C37.2448 31.0643 37.1842 31.7403 37.1842 32.425C37.1842 33.0923 37.2448 33.7553 37.3662 34.414C37.4875 35.0727 37.6695 35.7097 37.9122 36.325C38.1635 36.9403 38.4712 37.5167 38.8352 38.054H37.3792C36.9718 37.5427 36.6382 36.9837 36.3782 36.377C36.1182 35.779 35.9275 35.1463 35.8062 34.479C35.6848 33.8117 35.6242 33.1313 35.6242 32.438ZM46.512 36H40.467V34.791L42.664 32.399C43.106 31.9223 43.4613 31.515 43.73 31.177C43.9986 30.8303 44.1936 30.5097 44.315 30.215C44.445 29.9203 44.51 29.5997 44.51 29.253C44.51 28.8283 44.4016 28.512 44.185 28.304C43.977 28.0873 43.6996 27.979 43.353 27.979C43.0063 27.979 42.677 28.0613 42.365 28.226C42.0616 28.382 41.741 28.6073 41.403 28.902L40.454 27.823C40.7053 27.5977 40.9696 27.394 41.247 27.212C41.5243 27.0213 41.845 26.8697 42.209 26.757C42.5816 26.6443 43.0106 26.588 43.496 26.588C44.0593 26.588 44.5446 26.6963 44.952 26.913C45.368 27.121 45.6886 27.4113 45.914 27.784C46.1393 28.1567 46.252 28.59 46.252 29.084C46.252 29.4653 46.1956 29.8163 46.083 30.137C45.979 30.4577 45.823 30.774 45.615 31.086C45.407 31.398 45.16 31.7187 44.874 32.048C44.588 32.3773 44.2673 32.737 43.912 33.127L42.651 34.505V34.583H46.512V36ZM54.3382 30.683C54.3382 31.2377 54.2948 31.7837 54.2082 32.321C54.1302 32.8497 53.9958 33.3437 53.8052 33.803C53.6145 34.2623 53.3545 34.6697 53.0252 35.025C52.7045 35.3717 52.2928 35.6447 51.7902 35.844C51.2962 36.0347 50.7025 36.13 50.0092 36.13C49.8358 36.13 49.6365 36.1213 49.4112 36.104C49.1858 36.0867 48.9952 36.0607 48.8392 36.026V34.674C48.9952 34.7173 49.1642 34.752 49.3462 34.778C49.5368 34.804 49.7188 34.817 49.8922 34.817C50.4382 34.817 50.8888 34.739 51.2442 34.583C51.5995 34.4183 51.8812 34.193 52.0892 33.907C52.3058 33.6123 52.4575 33.27 52.5442 32.88C52.6395 32.4813 52.6958 32.0567 52.7132 31.606H52.6352C52.5225 31.8053 52.3838 31.9873 52.2192 32.152C52.0545 32.3167 51.8508 32.4467 51.6082 32.542C51.3655 32.6373 51.0578 32.685 50.6852 32.685C50.1912 32.685 49.7622 32.5723 49.3982 32.347C49.0428 32.1217 48.7655 31.7967 48.5662 31.372C48.3668 30.9387 48.2672 30.4143 48.2672 29.799C48.2672 29.1317 48.3842 28.5597 48.6182 28.083C48.8608 27.5977 49.1988 27.2293 49.6322 26.978C50.0655 26.718 50.5855 26.588 51.1922 26.588C51.6342 26.588 52.0458 26.6747 52.4272 26.848C52.8085 27.0127 53.1422 27.264 53.4282 27.602C53.7142 27.9313 53.9352 28.356 54.0912 28.876C54.2558 29.3873 54.3382 29.9897 54.3382 30.683ZM51.2182 27.927C50.8455 27.927 50.5378 28.0787 50.2952 28.382C50.0612 28.6853 49.9442 29.149 49.9442 29.773C49.9442 30.2757 50.0438 30.6743 50.2432 30.969C50.4512 31.255 50.7588 31.398 51.1662 31.398C51.4608 31.398 51.7122 31.3287 51.9202 31.19C52.1368 31.0427 52.3015 30.8607 52.4142 30.644C52.5355 30.4273 52.5962 30.1977 52.5962 29.955C52.5962 29.7037 52.5658 29.4567 52.5052 29.214C52.4532 28.9713 52.3708 28.7547 52.2582 28.564C52.1455 28.3733 51.9982 28.2217 51.8162 28.109C51.6428 27.9877 51.4435 27.927 51.2182 27.927ZM59.1744 32.438C59.1744 33.1313 59.1137 33.8117 58.9924 34.479C58.871 35.1463 58.6804 35.779 58.4204 36.377C58.169 36.9837 57.8354 37.5427 57.4194 38.054H55.9634C56.336 37.5167 56.6437 36.9403 56.8864 36.325C57.129 35.7097 57.311 35.0727 57.4324 34.414C57.5624 33.7553 57.6274 33.0923 57.6274 32.425C57.6274 31.7403 57.5624 31.0643 57.4324 30.397C57.311 29.7297 57.129 29.084 56.8864 28.46C56.6437 27.836 56.3317 27.2553 55.9504 26.718H57.4194C57.8354 27.238 58.169 27.8057 58.4204 28.421C58.6804 29.0363 58.871 29.682 58.9924 30.358C59.1137 31.034 59.1744 31.7273 59.1744 32.438ZM67.906 26.601C68.4347 26.601 68.907 26.6833 69.323 26.848C69.739 27.0127 70.0683 27.2597 70.311 27.589C70.5537 27.9183 70.675 28.33 70.675 28.824C70.675 29.1967 70.6057 29.526 70.467 29.812C70.3283 30.0893 70.1377 30.332 69.895 30.54C69.6523 30.748 69.3837 30.9343 69.089 31.099C69.4097 31.2723 69.7087 31.476 69.986 31.71C70.272 31.9353 70.5017 32.204 70.675 32.516C70.8483 32.8193 70.935 33.179 70.935 33.595C70.935 34.1063 70.8137 34.5527 70.571 34.934C70.337 35.3153 69.9947 35.61 69.544 35.818C69.0933 36.026 68.5473 36.13 67.906 36.13C67.2387 36.13 66.6797 36.0303 66.229 35.831C65.7783 35.6317 65.436 35.3457 65.202 34.973C64.9767 34.6003 64.864 34.1583 64.864 33.647C64.864 33.2223 64.9377 32.854 65.085 32.542C65.241 32.23 65.449 31.9613 65.709 31.736C65.969 31.502 66.2507 31.307 66.554 31.151C66.294 30.9777 66.0513 30.7827 65.826 30.566C65.6093 30.3407 65.4403 30.0893 65.319 29.812C65.1977 29.526 65.137 29.1923 65.137 28.811C65.137 28.3257 65.2583 27.9183 65.501 27.589C65.7437 27.2597 66.073 27.0127 66.489 26.848C66.9137 26.6833 67.386 26.601 67.906 26.601ZM66.489 33.569C66.489 33.9503 66.606 34.2667 66.84 34.518C67.074 34.7607 67.425 34.882 67.893 34.882C68.2137 34.882 68.478 34.83 68.686 34.726C68.894 34.6133 69.05 34.4573 69.154 34.258C69.2667 34.0587 69.323 33.829 69.323 33.569C69.323 33.309 69.258 33.0793 69.128 32.88C69.0067 32.6807 68.842 32.503 68.634 32.347C68.426 32.1823 68.205 32.0393 67.971 31.918L67.802 31.827C67.5333 31.9657 67.2993 32.1217 67.1 32.295C66.9093 32.4597 66.7577 32.646 66.645 32.854C66.541 33.062 66.489 33.3003 66.489 33.569ZM67.893 27.836C67.581 27.836 67.3167 27.9313 67.1 28.122C66.8833 28.3127 66.775 28.5813 66.775 28.928C66.775 29.1793 66.827 29.396 66.931 29.578C67.035 29.76 67.1737 29.916 67.347 30.046C67.5203 30.176 67.711 30.3017 67.919 30.423C68.1097 30.3103 68.2873 30.189 68.452 30.059C68.6253 29.929 68.764 29.773 68.868 29.591C68.972 29.409 69.024 29.188 69.024 28.928C69.024 28.5813 68.9157 28.3127 68.699 28.122C68.491 27.9313 68.2223 27.836 67.893 27.836ZM73.6262 36L76.9282 28.135H72.6382V26.718H78.7742V27.823L75.4592 36H73.6262ZM83.6624 30.163C84.2084 30.163 84.6894 30.2713 85.1054 30.488C85.5214 30.7047 85.8464 31.021 86.0804 31.437C86.3231 31.8443 86.4444 32.347 86.4444 32.945C86.4444 33.6037 86.3144 34.1713 86.0544 34.648C85.7944 35.1247 85.4087 35.493 84.8974 35.753C84.3947 36.0043 83.7664 36.13 83.0124 36.13C82.5531 36.13 82.1197 36.0867 81.7124 36C81.3051 35.9133 80.9541 35.7877 80.6594 35.623V34.167C80.9627 34.3403 81.3267 34.4833 81.7514 34.596C82.1761 34.7087 82.5747 34.765 82.9474 34.765C83.3114 34.765 83.6234 34.7087 83.8834 34.596C84.1434 34.4747 84.3427 34.2927 84.4814 34.05C84.6201 33.7987 84.6894 33.4823 84.6894 33.101C84.6894 32.581 84.5421 32.1867 84.2474 31.918C83.9527 31.6493 83.4977 31.515 82.8824 31.515C82.6571 31.515 82.4187 31.5367 82.1674 31.58C81.9161 31.6233 81.7081 31.6667 81.5434 31.71L80.8284 31.32L81.1664 26.718H85.8464V28.148H82.6614L82.4924 30.293C82.6311 30.267 82.7871 30.241 82.9604 30.215C83.1424 30.1803 83.3764 30.163 83.6624 30.163ZM88.1996 33.205V31.827H91.3716V33.205H88.1996ZM99.0775 30.683C99.0775 31.2377 99.0341 31.7837 98.9475 32.321C98.8695 32.8497 98.7351 33.3437 98.5445 33.803C98.3538 34.2623 98.0938 34.6697 97.7645 35.025C97.4438 35.3717 97.0321 35.6447 96.5295 35.844C96.0355 36.0347 95.4418 36.13 94.7485 36.13C94.5751 36.13 94.3758 36.1213 94.1505 36.104C93.9251 36.0867 93.7345 36.0607 93.5785 36.026V34.674C93.7345 34.7173 93.9035 34.752 94.0855 34.778C94.2761 34.804 94.4581 34.817 94.6315 34.817C95.1775 34.817 95.6281 34.739 95.9835 34.583C96.3388 34.4183 96.6205 34.193 96.8285 33.907C97.0451 33.6123 97.1968 33.27 97.2835 32.88C97.3788 32.4813 97.4351 32.0567 97.4525 31.606H97.3745C97.2618 31.8053 97.1231 31.9873 96.9585 32.152C96.7938 32.3167 96.5901 32.4467 96.3475 32.542C96.1048 32.6373 95.7971 32.685 95.4245 32.685C94.9305 32.685 94.5015 32.5723 94.1375 32.347C93.7821 32.1217 93.5048 31.7967 93.3055 31.372C93.1061 30.9387 93.0065 30.4143 93.0065 29.799C93.0065 29.1317 93.1235 28.5597 93.3575 28.083C93.6001 27.5977 93.9381 27.2293 94.3715 26.978C94.8048 26.718 95.3248 26.588 95.9315 26.588C96.3735 26.588 96.7851 26.6747 97.1665 26.848C97.5478 27.0127 97.8815 27.264 98.1675 27.602C98.4535 27.9313 98.6745 28.356 98.8305 28.876C98.9951 29.3873 99.0775 29.9897 99.0775 30.683ZM95.9575 27.927C95.5848 27.927 95.2771 28.0787 95.0345 28.382C94.8005 28.6853 94.6835 29.149 94.6835 29.773C94.6835 30.2757 94.7831 30.6743 94.9825 30.969C95.1905 31.255 95.4981 31.398 95.9055 31.398C96.2001 31.398 96.4515 31.3287 96.6595 31.19C96.8761 31.0427 97.0408 30.8607 97.1535 30.644C97.2748 30.4273 97.3355 30.1977 97.3355 29.955C97.3355 29.7037 97.3051 29.4567 97.2445 29.214C97.1925 28.9713 97.1101 28.7547 96.9975 28.564C96.8848 28.3733 96.7375 28.2217 96.5555 28.109C96.3821 27.9877 96.1828 27.927 95.9575 27.927ZM103.862 26.601C104.39 26.601 104.863 26.6833 105.279 26.848C105.695 27.0127 106.024 27.2597 106.267 27.589C106.509 27.9183 106.631 28.33 106.631 28.824C106.631 29.1967 106.561 29.526 106.423 29.812C106.284 30.0893 106.093 30.332 105.851 30.54C105.608 30.748 105.339 30.9343 105.045 31.099C105.365 31.2723 105.664 31.476 105.942 31.71C106.228 31.9353 106.457 32.204 106.631 32.516C106.804 32.8193 106.891 33.179 106.891 33.595C106.891 34.1063 106.769 34.5527 106.527 34.934C106.293 35.3153 105.95 35.61 105.5 35.818C105.049 36.026 104.503 36.13 103.862 36.13C103.194 36.13 102.635 36.0303 102.185 35.831C101.734 35.6317 101.392 35.3457 101.158 34.973C100.932 34.6003 100.82 34.1583 100.82 33.647C100.82 33.2223 100.893 32.854 101.041 32.542C101.197 32.23 101.405 31.9613 101.665 31.736C101.925 31.502 102.206 31.307 102.51 31.151C102.25 30.9777 102.007 30.7827 101.782 30.566C101.565 30.3407 101.396 30.0893 101.275 29.812C101.153 29.526 101.093 29.1923 101.093 28.811C101.093 28.3257 101.214 27.9183 101.457 27.589C101.699 27.2597 102.029 27.0127 102.445 26.848C102.869 26.6833 103.342 26.601 103.862 26.601ZM102.445 33.569C102.445 33.9503 102.562 34.2667 102.796 34.518C103.03 34.7607 103.381 34.882 103.849 34.882C104.169 34.882 104.434 34.83 104.642 34.726C104.85 34.6133 105.006 34.4573 105.11 34.258C105.222 34.0587 105.279 33.829 105.279 33.569C105.279 33.309 105.214 33.0793 105.084 32.88C104.962 32.6807 104.798 32.503 104.59 32.347C104.382 32.1823 104.161 32.0393 103.927 31.918L103.758 31.827C103.489 31.9657 103.255 32.1217 103.056 32.295C102.865 32.4597 102.713 32.646 102.601 32.854C102.497 33.062 102.445 33.3003 102.445 33.569ZM103.849 27.836C103.537 27.836 103.272 27.9313 103.056 28.122C102.839 28.3127 102.731 28.5813 102.731 28.928C102.731 29.1793 102.783 29.396 102.887 29.578C102.991 29.76 103.129 29.916 103.303 30.046C103.476 30.176 103.667 30.3017 103.875 30.423C104.065 30.3103 104.243 30.189 104.408 30.059C104.581 29.929 104.72 29.773 104.824 29.591C104.928 29.409 104.98 29.188 104.98 28.928C104.98 28.5813 104.871 28.3127 104.655 28.122C104.447 27.9313 104.178 27.836 103.849 27.836ZM108.529 33.205V31.827H111.701V33.205H108.529ZM119.68 34.011H118.588V36H116.885V34.011H113.076V32.789L116.937 26.692H118.588V32.672H119.68V34.011ZM116.885 30.592C116.885 30.41 116.885 30.2237 116.885 30.033C116.893 29.8337 116.902 29.6387 116.911 29.448C116.919 29.2573 116.928 29.084 116.937 28.928C116.945 28.772 116.95 28.6507 116.95 28.564H116.898C116.828 28.7287 116.75 28.8977 116.664 29.071C116.577 29.2443 116.49 29.4133 116.404 29.578L114.623 32.672H116.885V30.592ZM121.175 32.048C121.175 31.5107 121.21 30.982 121.279 30.462C121.357 29.942 121.483 29.4523 121.656 28.993C121.838 28.525 122.089 28.1133 122.41 27.758C122.739 27.394 123.155 27.1123 123.658 26.913C124.161 26.705 124.767 26.601 125.478 26.601C125.651 26.601 125.851 26.6097 126.076 26.627C126.301 26.6443 126.488 26.6703 126.635 26.705V28.057C126.479 28.005 126.306 27.9703 126.115 27.953C125.924 27.927 125.721 27.914 125.504 27.914C124.993 27.914 124.564 27.9963 124.217 28.161C123.879 28.317 123.606 28.5423 123.398 28.837C123.199 29.1317 123.051 29.474 122.956 29.864C122.861 30.2453 122.804 30.67 122.787 31.138H122.852C122.973 30.93 123.116 30.7437 123.281 30.579C123.454 30.4143 123.662 30.2843 123.905 30.189C124.156 30.0937 124.442 30.046 124.763 30.046C125.274 30.046 125.716 30.163 126.089 30.397C126.462 30.6223 126.748 30.9517 126.947 31.385C127.146 31.8097 127.246 32.3297 127.246 32.945C127.246 33.6037 127.125 34.1713 126.882 34.648C126.648 35.1247 126.314 35.493 125.881 35.753C125.448 36.0043 124.928 36.13 124.321 36.13C123.879 36.13 123.467 36.0477 123.086 35.883C122.705 35.7183 122.371 35.4713 122.085 35.142C121.799 34.804 121.574 34.3793 121.409 33.868C121.253 33.348 121.175 32.7413 121.175 32.048ZM124.282 34.791C124.663 34.791 124.971 34.6437 125.205 34.349C125.439 34.0457 125.556 33.582 125.556 32.958C125.556 32.4553 125.452 32.061 125.244 31.775C125.036 31.4803 124.728 31.333 124.321 31.333C124.026 31.333 123.775 31.4067 123.567 31.554C123.359 31.6927 123.194 31.8747 123.073 32.1C122.96 32.3167 122.904 32.542 122.904 32.776C122.904 33.0187 122.93 33.257 122.982 33.491C123.043 33.725 123.129 33.9417 123.242 34.141C123.363 34.3403 123.511 34.5007 123.684 34.622C123.857 34.7347 124.057 34.791 124.282 34.791Z" fill="#515040"/>
<path d="M4.944 13L2.124 5.488H2.076C2.092 5.648 2.104 5.852 2.112 6.1C2.128 6.348 2.14 6.62 2.148 6.916C2.156 7.204 2.16 7.5 2.16 7.804V13H1.164V4.432H2.76L5.4 11.452H5.448L8.136 4.432H9.72V13H8.652V7.732C8.652 7.452 8.656 7.176 8.664 6.904C8.672 6.624 8.684 6.364 8.7 6.124C8.716 5.876 8.728 5.668 8.736 5.5H8.688L5.832 13H4.944ZM12.1467 13V6.568H13.2027V9.208H14.8707C15.4307 9.208 15.8907 9.276 16.2507 9.412C16.6107 9.548 16.8787 9.752 17.0547 10.024C17.2307 10.288 17.3187 10.624 17.3187 11.032C17.3187 11.432 17.2307 11.78 17.0547 12.076C16.8867 12.372 16.6187 12.6 16.2507 12.76C15.8907 12.92 15.4147 13 14.8227 13H12.1467ZM14.7267 12.148C15.1827 12.148 15.5547 12.072 15.8427 11.92C16.1307 11.76 16.2747 11.484 16.2747 11.092C16.2747 10.7 16.1427 10.436 15.8787 10.3C15.6147 10.156 15.2347 10.084 14.7387 10.084H13.2027V12.148H14.7267ZM18.3867 13V6.568H19.4427V13H18.3867ZM26.1397 6.568V9.244H29.6317V6.568H30.6877V13H29.6317V10.132H26.1397V13H25.0837V6.568H26.1397ZM35.4004 6.46C36.1844 6.46 36.7644 6.632 37.1404 6.976C37.5164 7.32 37.7044 7.868 37.7044 8.62V13H36.9364L36.7324 12.088H36.6844C36.5004 12.32 36.3084 12.516 36.1084 12.676C35.9164 12.828 35.6924 12.94 35.4364 13.012C35.1884 13.084 34.8844 13.12 34.5244 13.12C34.1404 13.12 33.7924 13.052 33.4804 12.916C33.1764 12.78 32.9364 12.572 32.7604 12.292C32.5844 12.004 32.4964 11.644 32.4964 11.212C32.4964 10.572 32.7484 10.08 33.2524 9.736C33.7564 9.384 34.5324 9.192 35.5804 9.16L36.6724 9.124V8.74C36.6724 8.204 36.5564 7.832 36.3244 7.624C36.0924 7.416 35.7644 7.312 35.3404 7.312C35.0044 7.312 34.6844 7.364 34.3804 7.468C34.0764 7.564 33.7924 7.676 33.5284 7.804L33.2044 7.012C33.4844 6.86 33.8164 6.732 34.2004 6.628C34.5844 6.516 34.9844 6.46 35.4004 6.46ZM35.7124 9.892C34.9124 9.924 34.3564 10.052 34.0444 10.276C33.7404 10.5 33.5884 10.816 33.5884 11.224C33.5884 11.584 33.6964 11.848 33.9124 12.016C34.1364 12.184 34.4204 12.268 34.7644 12.268C35.3084 12.268 35.7604 12.12 36.1204 11.824C36.4804 11.52 36.6604 11.056 36.6604 10.432V9.856L35.7124 9.892ZM45.8681 13.12C45.3001 13.12 44.7921 13.004 44.3441 12.772C43.9041 12.54 43.5561 12.18 43.3001 11.692C43.0521 11.204 42.9281 10.58 42.9281 9.82C42.9281 9.028 43.0601 8.384 43.3241 7.888C43.5881 7.392 43.9441 7.028 44.3921 6.796C44.8481 6.564 45.3641 6.448 45.9401 6.448C46.2681 6.448 46.5841 6.484 46.8881 6.556C47.1921 6.62 47.4401 6.7 47.6321 6.796L47.3081 7.672C47.1161 7.6 46.8921 7.532 46.6361 7.468C46.3801 7.404 46.1401 7.372 45.9161 7.372C45.4841 7.372 45.1281 7.464 44.8481 7.648C44.5681 7.832 44.3601 8.104 44.2241 8.464C44.0881 8.824 44.0201 9.272 44.0201 9.808C44.0201 10.32 44.0881 10.756 44.2241 11.116C44.3601 11.476 44.5641 11.748 44.8361 11.932C45.1081 12.116 45.4481 12.208 45.8561 12.208C46.2081 12.208 46.5161 12.172 46.7801 12.1C47.0521 12.028 47.3001 11.94 47.5241 11.836V12.772C47.3081 12.884 47.0681 12.968 46.8041 13.024C46.5481 13.088 46.2361 13.12 45.8681 13.12ZM54.4658 8.188C54.4658 8.588 54.3458 8.9 54.1058 9.124C53.8658 9.348 53.5578 9.5 53.1818 9.58V9.628C53.5818 9.684 53.9298 9.828 54.2258 10.06C54.5218 10.284 54.6698 10.636 54.6698 11.116C54.6698 11.388 54.6178 11.64 54.5138 11.872C54.4178 12.104 54.2658 12.304 54.0578 12.472C53.8498 12.64 53.5818 12.772 53.2538 12.868C52.9258 12.956 52.5298 13 52.0658 13H49.2938V6.568H52.0538C52.5098 6.568 52.9178 6.62 53.2778 6.724C53.6458 6.82 53.9338 6.988 54.1418 7.228C54.3578 7.46 54.4658 7.78 54.4658 8.188ZM53.5778 11.116C53.5778 10.748 53.4378 10.484 53.1578 10.324C52.8778 10.164 52.4658 10.084 51.9218 10.084H50.3498V12.148H51.9458C52.4738 12.148 52.8778 12.072 53.1578 11.92C53.4378 11.76 53.5778 11.492 53.5778 11.116ZM53.3978 8.32C53.3978 8.016 53.2858 7.796 53.0618 7.66C52.8458 7.516 52.4898 7.444 51.9938 7.444H50.3498V9.208H51.8018C52.3218 9.208 52.7178 9.136 52.9898 8.992C53.2618 8.848 53.3978 8.624 53.3978 8.32ZM56.8438 13H55.6198L57.4558 10.3C57.2078 10.236 56.9678 10.136 56.7358 10C56.5038 9.856 56.3158 9.66 56.1718 9.412C56.0278 9.156 55.9558 8.84 55.9558 8.464C55.9558 7.848 56.1638 7.38 56.5798 7.06C56.9958 6.732 57.5478 6.568 58.2358 6.568H61.1158V13H60.0598V10.444H58.4998L56.8438 13ZM56.9758 8.476C56.9758 8.844 57.1118 9.12 57.3838 9.304C57.6638 9.48 58.0518 9.568 58.5478 9.568H60.0598V7.444H58.3438C57.8558 7.444 57.5038 7.54 57.2878 7.732C57.0798 7.924 56.9758 8.172 56.9758 8.476ZM65.0829 6.448C65.5709 6.448 65.9949 6.516 66.3549 6.652C66.7149 6.78 66.9949 6.972 67.1949 7.228C67.3949 7.476 67.4949 7.78 67.4949 8.14C67.4949 8.532 67.3869 8.844 67.1709 9.076C66.9549 9.3 66.6589 9.464 66.2829 9.568V9.616C66.5389 9.688 66.7749 9.788 66.9909 9.916C67.2069 10.044 67.3789 10.212 67.5069 10.42C67.6429 10.628 67.7109 10.896 67.7109 11.224C67.7109 11.576 67.6109 11.896 67.4109 12.184C67.2189 12.472 66.9189 12.7 66.5109 12.868C66.1109 13.036 65.5949 13.12 64.9629 13.12C64.6589 13.12 64.3669 13.104 64.0869 13.072C63.8149 13.04 63.5669 12.992 63.3429 12.928C63.1269 12.864 62.9349 12.788 62.7669 12.7V11.752C63.0389 11.88 63.3589 11.996 63.7269 12.1C64.1029 12.204 64.5109 12.256 64.9509 12.256C65.2709 12.256 65.5589 12.22 65.8149 12.148C66.0789 12.076 66.2869 11.964 66.4389 11.812C66.5909 11.652 66.6669 11.436 66.6669 11.164C66.6669 10.916 66.5989 10.716 66.4629 10.564C66.3269 10.404 66.1229 10.284 65.8509 10.204C65.5869 10.124 65.2469 10.084 64.8309 10.084H63.9669V9.22H64.6629C65.2149 9.22 65.6549 9.148 65.9829 9.004C66.3189 8.852 66.4869 8.596 66.4869 8.236C66.4869 7.932 66.3589 7.704 66.1029 7.552C65.8549 7.4 65.4949 7.324 65.0229 7.324C64.6709 7.324 64.3589 7.36 64.0869 7.432C63.8229 7.496 63.5309 7.596 63.2109 7.732L62.8389 6.892C63.1829 6.74 63.5429 6.628 63.9189 6.556C64.2949 6.484 64.6829 6.448 65.0829 6.448ZM70.5098 10.492C70.5098 10.564 70.5058 10.668 70.4978 10.804C70.4978 10.932 70.4938 11.072 70.4858 11.224C70.4778 11.368 70.4698 11.508 70.4618 11.644C70.4538 11.772 70.4458 11.876 70.4378 11.956L73.8818 6.568H75.1778V13H74.1938V9.208C74.1938 9.08 74.1938 8.912 74.1938 8.704C74.2018 8.496 74.2098 8.292 74.2178 8.092C74.2258 7.884 74.2338 7.728 74.2418 7.624L70.8218 13H69.5138V6.568H70.5098V10.492ZM83.4019 13.12C82.8339 13.12 82.3259 13.004 81.8779 12.772C81.4379 12.54 81.0899 12.18 80.8339 11.692C80.5859 11.204 80.4619 10.58 80.4619 9.82C80.4619 9.028 80.5939 8.384 80.8579 7.888C81.1219 7.392 81.4779 7.028 81.9259 6.796C82.3819 6.564 82.8979 6.448 83.4739 6.448C83.8019 6.448 84.1179 6.484 84.4219 6.556C84.7259 6.62 84.9739 6.7 85.1659 6.796L84.8419 7.672C84.6499 7.6 84.4259 7.532 84.1699 7.468C83.9139 7.404 83.6739 7.372 83.4499 7.372C83.0179 7.372 82.6619 7.464 82.3819 7.648C82.1019 7.832 81.8939 8.104 81.7579 8.464C81.6219 8.824 81.5539 9.272 81.5539 9.808C81.5539 10.32 81.6219 10.756 81.7579 11.116C81.8939 11.476 82.0979 11.748 82.3699 11.932C82.6419 12.116 82.9819 12.208 83.3899 12.208C83.7419 12.208 84.0499 12.172 84.3139 12.1C84.5859 12.028 84.8339 11.94 85.0579 11.836V12.772C84.8419 12.884 84.6019 12.968 84.3379 13.024C84.0819 13.088 83.7699 13.12 83.4019 13.12ZM95.3567 8.188C95.3567 8.588 95.2367 8.9 94.9967 9.124C94.7567 9.348 94.4487 9.5 94.0727 9.58V9.628C94.4727 9.684 94.8207 9.828 95.1167 10.06C95.4127 10.284 95.5607 10.636 95.5607 11.116C95.5607 11.388 95.5087 11.64 95.4047 11.872C95.3087 12.104 95.1567 12.304 94.9487 12.472C94.7407 12.64 94.4727 12.772 94.1447 12.868C93.8167 12.956 93.4207 13 92.9567 13H90.1847V6.568H92.9447C93.4007 6.568 93.8087 6.62 94.1687 6.724C94.5367 6.82 94.8247 6.988 95.0327 7.228C95.2487 7.46 95.3567 7.78 95.3567 8.188ZM94.4687 11.116C94.4687 10.748 94.3287 10.484 94.0487 10.324C93.7687 10.164 93.3567 10.084 92.8127 10.084H91.2407V12.148H92.8367C93.3647 12.148 93.7687 12.072 94.0487 11.92C94.3287 11.76 94.4687 11.492 94.4687 11.116ZM94.2887 8.32C94.2887 8.016 94.1767 7.796 93.9527 7.66C93.7367 7.516 93.3807 7.444 92.8847 7.444H91.2407V9.208H92.6927C93.2127 9.208 93.6087 9.136 93.8807 8.992C94.1527 8.848 94.2887 8.624 94.2887 8.32ZM99.7747 6.46C100.559 6.46 101.139 6.632 101.515 6.976C101.891 7.32 102.079 7.868 102.079 8.62V13H101.311L101.107 12.088H101.059C100.875 12.32 100.683 12.516 100.483 12.676C100.291 12.828 100.067 12.94 99.8107 13.012C99.5627 13.084 99.2587 13.12 98.8987 13.12C98.5147 13.12 98.1667 13.052 97.8547 12.916C97.5507 12.78 97.3107 12.572 97.1347 12.292C96.9587 12.004 96.8707 11.644 96.8707 11.212C96.8707 10.572 97.1227 10.08 97.6267 9.736C98.1307 9.384 98.9067 9.192 99.9547 9.16L101.047 9.124V8.74C101.047 8.204 100.931 7.832 100.699 7.624C100.467 7.416 100.139 7.312 99.7147 7.312C99.3787 7.312 99.0587 7.364 98.7547 7.468C98.4507 7.564 98.1667 7.676 97.9027 7.804L97.5787 7.012C97.8587 6.86 98.1907 6.732 98.5747 6.628C98.9587 6.516 99.3587 6.46 99.7747 6.46ZM100.087 9.892C99.2867 9.924 98.7307 10.052 98.4187 10.276C98.1147 10.5 97.9627 10.816 97.9627 11.224C97.9627 11.584 98.0707 11.848 98.2867 12.016C98.5107 12.184 98.7947 12.268 99.1387 12.268C99.6827 12.268 100.135 12.12 100.495 11.824C100.855 11.52 101.035 11.056 101.035 10.432V9.856L100.087 9.892ZM111.205 6.568V13H110.257V8.896C110.257 8.728 110.261 8.552 110.269 8.368C110.285 8.184 110.301 8.004 110.317 7.828H110.281L108.181 13H107.293L105.253 7.828H105.217C105.233 8.004 105.241 8.184 105.241 8.368C105.249 8.552 105.253 8.74 105.253 8.932V13H104.305V6.568H105.709L107.737 11.74L109.801 6.568H111.205ZM114.494 10.492C114.494 10.564 114.49 10.668 114.482 10.804C114.482 10.932 114.478 11.072 114.47 11.224C114.462 11.368 114.454 11.508 114.446 11.644C114.438 11.772 114.43 11.876 114.422 11.956L117.866 6.568H119.162V13H118.178V9.208C118.178 9.08 118.178 8.912 118.178 8.704C118.186 8.496 118.194 8.292 118.202 8.092C118.21 7.884 118.218 7.728 118.226 7.624L114.806 13H113.498V6.568H114.494V10.492Z" fill="#706E5D"/>
<line x1="158.5" y1="-2.18557e-08" x2="158.5" y2="40" stroke="#B5B5B5"/>
<path d="M208.48 27.212C208.48 26.556 208.54 25.916 208.66 25.292C208.788 24.668 208.984 24.072 209.248 23.504C209.512 22.936 209.844 22.412 210.244 21.932H211.24C210.872 22.428 210.56 22.964 210.304 23.54C210.056 24.116 209.868 24.712 209.74 25.328C209.612 25.944 209.548 26.568 209.548 27.2C209.548 27.816 209.612 28.428 209.74 29.036C209.868 29.644 210.056 30.228 210.304 30.788C210.552 31.356 210.86 31.892 211.228 32.396H210.244C209.844 31.924 209.512 31.408 209.248 30.848C208.984 30.296 208.788 29.712 208.66 29.096C208.54 28.48 208.48 27.852 208.48 27.212ZM217.754 23.936C217.754 24.32 217.682 24.652 217.538 24.932C217.394 25.212 217.186 25.44 216.914 25.616C216.65 25.792 216.338 25.916 215.978 25.988V26.036C216.666 26.116 217.178 26.332 217.514 26.684C217.85 27.036 218.018 27.496 218.018 28.064C218.018 28.56 217.902 29.004 217.67 29.396C217.438 29.78 217.078 30.08 216.59 30.296C216.11 30.512 215.49 30.62 214.73 30.62C214.282 30.62 213.866 30.584 213.482 30.512C213.098 30.448 212.73 30.328 212.378 30.152V29.168C212.738 29.344 213.126 29.484 213.542 29.588C213.958 29.684 214.358 29.732 214.742 29.732C215.51 29.732 216.062 29.584 216.398 29.288C216.742 28.984 216.914 28.568 216.914 28.04C216.914 27.68 216.818 27.392 216.626 27.176C216.442 26.952 216.17 26.788 215.81 26.684C215.45 26.58 215.018 26.528 214.514 26.528H213.686V25.628H214.526C214.998 25.628 215.39 25.56 215.702 25.424C216.022 25.288 216.262 25.1 216.422 24.86C216.59 24.612 216.674 24.328 216.674 24.008C216.674 23.592 216.534 23.272 216.254 23.048C215.974 22.816 215.594 22.7 215.114 22.7C214.81 22.7 214.534 22.732 214.286 22.796C214.038 22.852 213.806 22.936 213.59 23.048C213.382 23.152 213.17 23.276 212.954 23.42L212.426 22.7C212.634 22.54 212.87 22.392 213.134 22.256C213.406 22.12 213.706 22.012 214.034 21.932C214.362 21.852 214.718 21.812 215.102 21.812C215.998 21.812 216.662 22.012 217.094 22.412C217.534 22.812 217.754 23.32 217.754 23.936ZM222.065 27.212C222.065 27.852 222.001 28.48 221.873 29.096C221.753 29.712 221.561 30.296 221.297 30.848C221.041 31.408 220.709 31.924 220.301 32.396H219.317C219.685 31.892 219.993 31.356 220.241 30.788C220.489 30.228 220.677 29.644 220.805 29.036C220.933 28.428 220.997 27.816 220.997 27.2C220.997 26.568 220.933 25.944 220.805 25.328C220.677 24.712 220.489 24.116 220.241 23.54C219.993 22.964 219.681 22.428 219.305 21.932H220.301C220.709 22.412 221.041 22.936 221.297 23.504C221.561 24.072 221.753 24.668 221.873 25.292C222.001 25.916 222.065 26.556 222.065 27.212Z" fill="#2F2F2F"/>
<path d="M193 23.5C193.265 23.5 193.519 23.3947 193.707 23.2071C193.894 23.0196 194 22.7652 194 22.5V20.5C194 20.2348 193.894 19.9805 193.707 19.7929C193.519 19.6054 193.265 19.5 193 19.5C192.735 19.5 192.48 19.6054 192.293 19.7929C192.105 19.9805 192 20.2348 192 20.5V22.5C192 22.7652 192.105 23.0196 192.293 23.2071C192.48 23.3947 192.735 23.5 193 23.5ZM189 23.5C189.265 23.5 189.519 23.3947 189.707 23.2071C189.894 23.0196 190 22.7652 190 22.5V20.5C190 20.2348 189.894 19.9805 189.707 19.7929C189.519 19.6054 189.265 19.5 189 19.5C188.735 19.5 188.48 19.6054 188.293 19.7929C188.105 19.9805 188 20.2348 188 20.5V22.5C188 22.7652 188.105 23.0196 188.293 23.2071C188.48 23.3947 188.735 23.5 189 23.5ZM198 11.5H196.62L194.89 8.05003C194.837 7.92308 194.758 7.8084 194.659 7.71316C194.56 7.61791 194.442 7.54414 194.313 7.49647C194.184 7.44879 194.047 7.42823 193.91 7.43607C193.772 7.44392 193.638 7.47999 193.515 7.54204C193.393 7.60408 193.284 7.69078 193.196 7.7967C193.109 7.90261 193.044 8.02548 193.006 8.15762C192.968 8.28976 192.957 8.42833 192.975 8.56467C192.993 8.70102 193.039 8.8322 193.11 8.95003L194.38 11.5H187.62L188.89 8.95003C188.987 8.71693 188.992 8.45575 188.905 8.21891C188.817 7.98208 188.643 7.78712 188.418 7.67319C188.193 7.55926 187.932 7.53479 187.69 7.60469C187.447 7.67458 187.24 7.83368 187.11 8.05003L185.38 11.5H184C183.293 11.5108 182.613 11.7708 182.079 12.2342C181.545 12.6975 181.192 13.3346 181.082 14.0328C180.972 14.7311 181.112 15.4458 181.478 16.0509C181.843 16.6559 182.411 17.1125 183.08 17.34L183.82 24.8C183.894 25.5426 184.243 26.2307 184.798 26.7299C185.353 27.2292 186.073 27.5038 186.82 27.5H195.2C195.946 27.5038 196.667 27.2292 197.222 26.7299C197.776 26.2307 198.125 25.5426 198.2 24.8L198.94 17.34C199.611 17.1118 200.179 16.6536 200.544 16.0465C200.909 15.4394 201.048 14.7227 200.935 14.0232C200.823 13.3237 200.466 12.6866 199.929 12.2248C199.392 11.763 198.708 11.5062 198 11.5ZM196.19 24.6C196.165 24.8475 196.049 25.0769 195.864 25.2433C195.679 25.4098 195.439 25.5013 195.19 25.5H186.81C186.561 25.5013 186.321 25.4098 186.136 25.2433C185.951 25.0769 185.835 24.8475 185.81 24.6L185.1 17.5H196.9L196.19 24.6ZM198 15.5H184C183.735 15.5 183.48 15.3947 183.293 15.2071C183.105 15.0196 183 14.7652 183 14.5C183 14.2348 183.105 13.9805 183.293 13.7929C183.48 13.6054 183.735 13.5 184 13.5H198C198.265 13.5 198.519 13.6054 198.707 13.7929C198.894 13.9805 199 14.2348 199 14.5C199 14.7652 198.894 15.0196 198.707 15.2071C198.519 15.3947 198.265 15.5 198 15.5Z" fill="#706E5D"/>
</svg>
