<svg width="16" height="16" viewBox="0 0 16 16" fill="none" xmlns="http://www.w3.org/2000/svg">
<path d="M8.47363 10.36L12.2403 6.5867C12.3028 6.52472 12.3524 6.45099 12.3862 6.36975C12.4201 6.28851 12.4375 6.20137 12.4375 6.11336C12.4375 6.02535 12.4201 5.93822 12.3862 5.85698C12.3524 5.77574 12.3028 5.702 12.2403 5.64003C12.1154 5.51586 11.9464 5.44617 11.7703 5.44617C11.5942 5.44617 11.4252 5.51586 11.3003 5.64003L7.96697 8.94003L4.66697 5.64003C4.54206 5.51586 4.37309 5.44617 4.19697 5.44617C4.02084 5.44617 3.85188 5.51586 3.72697 5.64003C3.66398 5.70177 3.61386 5.7754 3.57953 5.85665C3.5452 5.9379 3.52734 6.02516 3.52697 6.11336C3.52734 6.20157 3.5452 6.28882 3.57953 6.37007C3.61386 6.45132 3.66398 6.52495 3.72697 6.5867L7.49363 10.36C7.55606 10.4277 7.63183 10.4817 7.71616 10.5186C7.8005 10.5556 7.89157 10.5747 7.98363 10.5747C8.0757 10.5747 8.16677 10.5556 8.25111 10.5186C8.33544 10.4817 8.41121 10.4277 8.47363 10.36Z" fill="#7C7B69"/>
</svg>
