<svg width="75" height="24" viewBox="0 0 75 24" fill="none" xmlns="http://www.w3.org/2000/svg">
<path d="M20 11H4C3.4 11 3 11.4 3 12C3 12.6 3.4 13 4 13H20C20.6 13 21 12.6 21 12C21 11.4 20.6 11 20 11ZM4 8H20C20.6 8 21 7.6 21 7C21 6.4 20.6 6 20 6H4C3.4 6 3 6.4 3 7C3 7.6 3.4 8 4 8ZM20 16H4C3.4 16 3 16.4 3 17C3 17.6 3.4 18 4 18H20C20.6 18 21 17.6 21 17C21 16.4 20.6 16 20 16Z" fill="#BCB3A3"/>
<path d="M40.488 17L38.4 9.98H38.352C38.36 10.14 38.372 10.368 38.388 10.664C38.404 10.952 38.416 11.268 38.424 11.612C38.44 11.948 38.448 12.264 38.448 12.56V17H37.008V8.432H39.216L41.256 15.164H41.292L43.368 8.432H45.588V17H44.076V12.488C44.076 12.216 44.08 11.92 44.088 11.6C44.096 11.272 44.108 10.964 44.124 10.676C44.14 10.38 44.152 10.152 44.16 9.992H44.112L41.964 17H40.488ZM52.5817 17H47.9617V8.432H52.5817V9.716H49.5697V11.9H52.3897V13.184H49.5697V15.704H52.5817V17ZM61.1313 17H59.5113V13.196H56.1993V17H54.5913V8.432H56.1993V11.888H59.5113V8.432H61.1313V17ZM73.874 12.704C73.874 13.368 73.802 13.972 73.658 14.516C73.514 15.052 73.294 15.516 72.998 15.908C72.702 16.3 72.326 16.6 71.87 16.808C71.422 17.016 70.89 17.12 70.274 17.12C69.522 17.12 68.89 16.96 68.378 16.64C67.874 16.312 67.482 15.856 67.202 15.272C66.93 14.68 66.77 13.988 66.722 13.196H65.114V17H63.506V8.432H65.114V11.888H66.758C66.83 11.16 67.002 10.528 67.274 9.992C67.554 9.448 67.942 9.032 68.438 8.744C68.942 8.448 69.558 8.3 70.286 8.3C71.094 8.3 71.762 8.484 72.29 8.852C72.826 9.212 73.222 9.724 73.478 10.388C73.742 11.044 73.874 11.816 73.874 12.704ZM68.354 12.704C68.354 13.352 68.422 13.908 68.558 14.372C68.694 14.836 68.902 15.192 69.182 15.44C69.47 15.688 69.834 15.812 70.274 15.812C70.722 15.812 71.086 15.688 71.366 15.44C71.654 15.192 71.862 14.836 71.99 14.372C72.126 13.908 72.194 13.352 72.194 12.704C72.194 12.056 72.126 11.5 71.99 11.036C71.862 10.572 71.658 10.216 71.378 9.968C71.098 9.72 70.734 9.596 70.286 9.596C69.838 9.596 69.47 9.72 69.182 9.968C68.902 10.216 68.694 10.572 68.558 11.036C68.422 11.5 68.354 12.056 68.354 12.704Z" fill="#2F2F2F"/>
</svg>
