<svg width="16" height="18" viewBox="0 0 16 18" fill="none" xmlns="http://www.w3.org/2000/svg">
<path d="M15.0499 7.02493C14.9329 5.80736 14.5026 4.64083 13.8009 3.63895C13.0992 2.63706 12.15 1.83396 11.0457 1.30784C9.94148 0.781728 8.7198 0.550532 7.49966 0.636768C6.27953 0.723004 5.10251 1.12373 4.08323 1.79993C3.20756 2.38547 2.47245 3.15768 1.93069 4.06109C1.38893 4.9645 1.05398 5.97669 0.949901 7.02493C0.847803 8.06631 0.978796 9.11736 1.33338 10.1018C1.68796 11.0863 2.25723 11.9795 2.9999 12.7166L7.41657 17.1416C7.49404 17.2197 7.5862 17.2817 7.68775 17.324C7.7893 17.3663 7.89822 17.3881 8.00823 17.3881C8.11824 17.3881 8.22717 17.3663 8.32872 17.324C8.43026 17.2817 8.52243 17.2197 8.5999 17.1416L12.9999 12.7166C13.7426 11.9795 14.3118 11.0863 14.6664 10.1018C15.021 9.11736 15.152 8.06631 15.0499 7.02493ZM11.8332 11.5416L7.9999 15.3749L4.16657 11.5416C3.60164 10.9766 3.1689 10.2935 2.89946 9.5414C2.63001 8.78926 2.53055 7.98676 2.60823 7.1916C2.68642 6.38418 2.94304 5.60423 3.35954 4.90813C3.77605 4.21204 4.34203 3.61719 5.01657 3.1666C5.90069 2.5793 6.93849 2.26601 7.9999 2.26601C9.06131 2.26601 10.0991 2.5793 10.9832 3.1666C11.6557 3.61545 12.2205 4.20767 12.6369 4.90071C13.0533 5.59376 13.311 6.37043 13.3916 7.17493C13.4718 7.97279 13.3736 8.77849 13.1041 9.53372C12.8345 10.2889 12.4005 10.9748 11.8332 11.5416ZM7.9999 3.99993C7.25822 3.99993 6.5332 4.21987 5.91651 4.63192C5.29983 5.04398 4.81918 5.62965 4.53535 6.31487C4.25152 7.00009 4.17726 7.75409 4.32196 8.48152C4.46665 9.20895 4.8238 9.87714 5.34825 10.4016C5.8727 10.926 6.54088 11.2832 7.26831 11.4279C7.99574 11.5726 8.74974 11.4983 9.43496 11.2145C10.1202 10.9307 10.7059 10.45 11.1179 9.83332C11.53 9.21664 11.7499 8.49161 11.7499 7.74993C11.7477 6.75605 11.3519 5.8035 10.6491 5.10071C9.94634 4.39793 8.99379 4.00213 7.9999 3.99993ZM7.9999 9.83327C7.58786 9.83327 7.18507 9.71108 6.84246 9.48216C6.49986 9.25324 6.23283 8.92787 6.07515 8.54719C5.91747 8.16651 5.87621 7.74762 5.9566 7.34349C6.03698 6.93937 6.2354 6.56815 6.52676 6.27679C6.81812 5.98543 7.18934 5.78701 7.59346 5.70663C7.99759 5.62624 8.41648 5.6675 8.79716 5.82518C9.17784 5.98287 9.50321 6.24989 9.73213 6.59249C9.96105 6.9351 10.0832 7.33789 10.0832 7.74993C10.0832 8.30247 9.86374 8.83237 9.47304 9.22307C9.08234 9.61377 8.55244 9.83327 7.9999 9.83327Z" fill="white"/>
</svg>
