<svg width="108" height="77" viewBox="0 0 108 77" fill="none" xmlns="http://www.w3.org/2000/svg">
<path d="M37.61 66.7843C37.61 66.7776 37.61 66.7643 37.61 66.7443C37.61 66.6776 37.6066 66.5976 37.6 66.5043C37.5933 66.4043 37.5733 66.321 37.54 66.2543C37.4933 66.161 37.4066 66.1043 37.28 66.0843C37.1533 66.0643 37.0566 66.0543 36.99 66.0543C36.9766 66.041 36.9666 66.0043 36.96 65.9443C36.96 65.8776 36.97 65.831 36.99 65.8043C37.2433 65.791 37.4866 65.7676 37.72 65.7343C37.9533 65.701 38.1566 65.6576 38.33 65.6043C38.3566 65.6043 38.38 65.6376 38.4 65.7043C38.42 65.771 38.43 65.8176 38.43 65.8443C38.41 65.8843 38.3933 65.9643 38.38 66.0843C38.3733 66.2043 38.37 66.3343 38.37 66.4743V68.5243C38.37 68.5776 38.3733 68.6843 38.38 68.8443C38.3866 68.9976 38.4033 69.141 38.43 69.2743C38.45 69.3543 38.5233 69.401 38.65 69.4143C38.7833 69.4276 38.8833 69.4376 38.95 69.4443C38.9833 69.4443 39.0033 69.4443 39.01 69.4443C39.0233 69.451 39.03 69.4676 39.03 69.4943C39.0366 69.521 39.04 69.541 39.04 69.5543C39.04 69.561 39.0333 69.5876 39.02 69.6343C39.0066 69.681 38.9866 69.7043 38.96 69.7043C38.7933 69.711 38.61 69.7376 38.41 69.7843C38.2166 69.831 38.05 69.8743 37.91 69.9143C37.77 69.961 37.6966 69.9843 37.69 69.9843C37.6633 69.9843 37.6433 69.9643 37.63 69.9243C37.6166 69.891 37.61 69.8576 37.61 69.8243V69.3743C37.61 69.3476 37.6066 69.3343 37.6 69.3343C37.5933 69.3276 37.59 69.3243 37.59 69.3243C37.5033 69.4176 37.3833 69.5176 37.23 69.6243C37.0766 69.7243 36.91 69.8076 36.73 69.8743C36.55 69.941 36.3766 69.9743 36.21 69.9743C35.95 69.9743 35.74 69.9143 35.58 69.7943C35.42 69.6676 35.2966 69.5076 35.21 69.3143C35.1233 69.1143 35.0633 68.901 35.03 68.6743C35.0033 68.4476 34.99 68.231 34.99 68.0243V66.7843C34.99 66.7176 34.9866 66.631 34.98 66.5243C34.9733 66.4176 34.95 66.3276 34.91 66.2543C34.8633 66.161 34.7766 66.1043 34.65 66.0843C34.5233 66.0643 34.4266 66.0543 34.36 66.0543C34.3466 66.041 34.3366 66.0043 34.33 65.9443C34.33 65.8776 34.34 65.831 34.36 65.8043C34.6133 65.791 34.8566 65.7676 35.09 65.7343C35.3233 65.701 35.5266 65.6576 35.7 65.6043C35.7266 65.6043 35.75 65.631 35.77 65.6843C35.7966 65.7376 35.81 65.7776 35.81 65.8043C35.79 65.8443 35.7733 65.931 35.76 66.0643C35.7466 66.1976 35.74 66.3343 35.74 66.4743V67.9143C35.74 68.4343 35.8166 68.8176 35.97 69.0643C36.13 69.3043 36.38 69.4243 36.72 69.4243C36.8666 69.4243 37.0066 69.3976 37.14 69.3443C37.2733 69.2843 37.3833 69.211 37.47 69.1243C37.5633 69.0376 37.61 68.9576 37.61 68.8843V66.7843ZM42.3695 65.6243C42.7228 65.6243 42.9895 65.6976 43.1695 65.8443C43.3495 65.991 43.4695 66.2176 43.5295 66.5243C43.5961 66.831 43.6295 67.221 43.6295 67.6943V68.7743C43.6295 68.921 43.6295 69.0576 43.6295 69.1843C43.6361 69.311 43.6528 69.4143 43.6795 69.4943C43.6928 69.5276 43.7395 69.5576 43.8195 69.5843C43.9061 69.611 43.9961 69.631 44.0895 69.6443C44.1828 69.651 44.2495 69.6543 44.2895 69.6543C44.3095 69.681 44.3195 69.7276 44.3195 69.7943C44.3261 69.861 44.3161 69.9076 44.2895 69.9343C44.0895 69.921 43.9128 69.911 43.7595 69.9043C43.6128 69.891 43.4428 69.8843 43.2495 69.8843C43.0628 69.8843 42.8928 69.891 42.7395 69.9043C42.5861 69.911 42.4095 69.921 42.2095 69.9343C42.1828 69.9076 42.1695 69.861 42.1695 69.7943C42.1761 69.7276 42.1895 69.681 42.2095 69.6543C42.2495 69.6543 42.3161 69.651 42.4095 69.6443C42.5095 69.631 42.6028 69.611 42.6895 69.5843C42.7761 69.5576 42.8228 69.5276 42.8295 69.4943C42.8561 69.4143 42.8695 69.311 42.8695 69.1843C42.8761 69.0576 42.8795 68.921 42.8795 68.7743V67.7943C42.8795 67.3876 42.8528 67.071 42.7995 66.8443C42.7461 66.611 42.6495 66.4443 42.5095 66.3443C42.3695 66.2443 42.1728 66.1943 41.9195 66.1943C41.7995 66.1943 41.6661 66.2343 41.5195 66.3143C41.3795 66.3876 41.2561 66.4676 41.1495 66.5543C41.0428 66.641 40.9895 66.701 40.9895 66.7343V68.7743C40.9895 68.921 40.9895 69.0576 40.9895 69.1843C40.9961 69.311 41.0128 69.4143 41.0395 69.4943C41.0528 69.5276 41.0995 69.5576 41.1795 69.5843C41.2661 69.611 41.3561 69.631 41.4495 69.6443C41.5428 69.651 41.6095 69.6543 41.6495 69.6543C41.6695 69.681 41.6795 69.7276 41.6795 69.7943C41.6861 69.861 41.6761 69.9076 41.6495 69.9343C41.4495 69.921 41.2728 69.911 41.1195 69.9043C40.9728 69.891 40.8028 69.8843 40.6095 69.8843C40.4228 69.8843 40.2528 69.891 40.0995 69.9043C39.9461 69.911 39.7695 69.921 39.5695 69.9343C39.5428 69.9076 39.5295 69.861 39.5295 69.7943C39.5361 69.7276 39.5495 69.681 39.5695 69.6543C39.6095 69.6543 39.6761 69.651 39.7695 69.6443C39.8695 69.631 39.9628 69.611 40.0495 69.5843C40.1361 69.5576 40.1828 69.5276 40.1895 69.4943C40.2161 69.4143 40.2295 69.311 40.2295 69.1843C40.2361 69.0576 40.2395 68.921 40.2395 68.7743V66.9943C40.2395 66.9276 40.2361 66.8343 40.2295 66.7143C40.2295 66.5943 40.2161 66.5043 40.1895 66.4443C40.1695 66.3843 40.1128 66.3443 40.0195 66.3243C39.9261 66.2976 39.8328 66.2843 39.7395 66.2843C39.6461 66.2776 39.5861 66.2743 39.5595 66.2743C39.5528 66.261 39.5461 66.221 39.5395 66.1543C39.5328 66.0876 39.5395 66.041 39.5595 66.0143C39.8128 65.981 40.0595 65.931 40.2995 65.8643C40.5395 65.7976 40.7561 65.711 40.9495 65.6043C40.9761 65.6043 40.9995 65.6243 41.0195 65.6643C41.0461 65.7043 41.0595 65.7376 41.0595 65.7643C41.0595 65.7843 41.0528 65.8376 41.0395 65.9243C41.0328 66.0043 41.0228 66.0843 41.0095 66.1643C41.0028 66.2443 40.9995 66.2976 40.9995 66.3243C40.9995 66.351 41.0061 66.3643 41.0195 66.3643C41.0261 66.3643 41.0361 66.3576 41.0495 66.3443C41.1161 66.271 41.2228 66.1776 41.3695 66.0643C41.5228 65.951 41.6895 65.851 41.8695 65.7643C42.0495 65.671 42.2161 65.6243 42.3695 65.6243ZM47.115 65.6243C47.2217 65.6243 47.3484 65.6376 47.495 65.6643C47.6417 65.6843 47.7384 65.7043 47.785 65.7243C47.8184 65.7243 47.835 65.6576 47.835 65.5243V64.4543C47.835 64.381 47.8317 64.2943 47.825 64.1943C47.825 64.0876 47.8117 64.0043 47.785 63.9443C47.7584 63.871 47.685 63.8243 47.565 63.8043C47.445 63.7843 47.3184 63.7743 47.185 63.7743C47.1784 63.7743 47.1717 63.7343 47.165 63.6543C47.165 63.5676 47.175 63.521 47.195 63.5143C47.4417 63.4876 47.6817 63.441 47.915 63.3743C48.155 63.301 48.3784 63.2176 48.585 63.1243C48.6117 63.1243 48.635 63.1443 48.655 63.1843C48.6817 63.2176 48.695 63.251 48.695 63.2843C48.695 63.2843 48.675 63.3576 48.635 63.5043C48.6017 63.651 48.585 63.861 48.585 64.1343V68.3143C48.585 68.501 48.5884 68.691 48.595 68.8843C48.6084 69.071 48.6284 69.201 48.655 69.2743C48.6884 69.3476 48.765 69.3943 48.885 69.4143C49.0117 69.4276 49.1084 69.4376 49.175 69.4443C49.2017 69.4443 49.2184 69.4443 49.225 69.4443C49.2384 69.451 49.245 69.471 49.245 69.5043C49.2517 69.531 49.255 69.551 49.255 69.5643C49.255 69.571 49.2484 69.5976 49.235 69.6443C49.2284 69.6843 49.2117 69.7043 49.185 69.7043C49.0184 69.711 48.835 69.7376 48.635 69.7843C48.4417 69.831 48.275 69.8743 48.135 69.9143C47.995 69.961 47.9217 69.9843 47.915 69.9843C47.8884 69.9843 47.8684 69.961 47.855 69.9143C47.8417 69.8676 47.835 69.8276 47.835 69.7943V69.4543C47.835 69.3943 47.825 69.3743 47.805 69.3943C47.7584 69.4476 47.6584 69.521 47.505 69.6143C47.3584 69.7076 47.195 69.7943 47.015 69.8743C46.835 69.9476 46.665 69.9843 46.505 69.9843C46.2117 69.9843 45.9317 69.8943 45.665 69.7143C45.405 69.5276 45.1917 69.2776 45.025 68.9643C44.865 68.6443 44.785 68.2876 44.785 67.8943C44.785 67.5743 44.8617 67.2776 45.015 67.0043C45.175 66.7243 45.375 66.4843 45.615 66.2843C45.8617 66.0776 46.1184 65.9176 46.385 65.8043C46.6517 65.6843 46.895 65.6243 47.115 65.6243ZM46.795 66.0343C46.5484 66.0343 46.335 66.1143 46.155 66.2743C45.9817 66.4276 45.845 66.6276 45.745 66.8743C45.6517 67.121 45.605 67.381 45.605 67.6543C45.605 67.961 45.6584 68.2443 45.765 68.5043C45.8717 68.7643 46.0284 68.9743 46.235 69.1343C46.4417 69.2943 46.6917 69.3743 46.985 69.3743C47.205 69.3743 47.4017 69.331 47.575 69.2443C47.7484 69.151 47.835 69.0643 47.835 68.9843V66.5143C47.835 66.401 47.7284 66.2943 47.515 66.1943C47.3084 66.0876 47.0684 66.0343 46.795 66.0343ZM50.5046 67.4843C50.4979 67.8976 50.5679 68.2443 50.7146 68.5243C50.8612 68.8043 51.0579 69.0143 51.3046 69.1543C51.5512 69.2876 51.8179 69.3543 52.1046 69.3543C52.2846 69.3543 52.4479 69.3243 52.5946 69.2643C52.7412 69.1976 52.8646 69.1243 52.9646 69.0443C53.0646 68.9576 53.1346 68.891 53.1746 68.8443C53.1812 68.8443 53.1946 68.8576 53.2146 68.8843C53.2412 68.9043 53.2546 68.9343 53.2546 68.9743C53.2546 69.0276 53.2346 69.0876 53.1946 69.1543C53.1346 69.2476 53.0412 69.361 52.9146 69.4943C52.7879 69.621 52.6279 69.7343 52.4346 69.8343C52.2412 69.9343 52.0179 69.9843 51.7646 69.9843C51.3846 69.9843 51.0479 69.8943 50.7546 69.7143C50.4612 69.5343 50.2312 69.291 50.0646 68.9843C49.8979 68.6776 49.8146 68.3343 49.8146 67.9543C49.8146 67.6276 49.8712 67.3243 49.9846 67.0443C50.1046 66.7576 50.2579 66.511 50.4446 66.3043C50.6379 66.091 50.8479 65.9243 51.0746 65.8043C51.3012 65.6843 51.5212 65.6243 51.7346 65.6243C52.0279 65.6243 52.2679 65.6743 52.4546 65.7743C52.6479 65.8743 52.7979 65.9976 52.9046 66.1443C53.0179 66.291 53.0946 66.4376 53.1346 66.5843C53.1812 66.731 53.2046 66.8543 53.2046 66.9543C53.2046 67.0943 53.1879 67.2043 53.1546 67.2843C53.1212 67.3643 53.0579 67.4076 52.9646 67.4143C52.9046 67.421 52.7846 67.4276 52.6046 67.4343C52.4312 67.4343 52.2312 67.4376 52.0046 67.4443C51.7779 67.451 51.5546 67.4576 51.3346 67.4643C51.1146 67.471 50.9279 67.4776 50.7746 67.4843C50.6212 67.4843 50.5312 67.4843 50.5046 67.4843ZM50.5546 67.1243H52.1446C52.2046 67.1243 52.2546 67.1076 52.2946 67.0743C52.3412 67.041 52.3679 66.981 52.3746 66.8943C52.3812 66.8143 52.3579 66.701 52.3046 66.5543C52.2512 66.4076 52.1646 66.2743 52.0446 66.1543C51.9312 66.0343 51.7746 65.9743 51.5746 65.9743C51.3679 65.9743 51.1979 66.0343 51.0646 66.1543C50.9312 66.2676 50.8246 66.401 50.7446 66.5543C50.6712 66.701 50.6179 66.8343 50.5846 66.9543C50.5579 67.0676 50.5479 67.1243 50.5546 67.1243ZM56.574 65.6343C56.7007 65.6343 56.8207 65.6643 56.934 65.7243C57.0473 65.7776 57.1273 65.8443 57.174 65.9243C57.1873 65.951 57.1973 65.9876 57.204 66.0343C57.2107 66.081 57.214 66.131 57.214 66.1843C57.214 66.3643 57.1707 66.4943 57.084 66.5743C57.004 66.6543 56.9373 66.6943 56.884 66.6943C56.8173 66.6943 56.754 66.671 56.694 66.6243C56.634 66.5776 56.5773 66.5376 56.524 66.5043C56.4773 66.471 56.4273 66.4443 56.374 66.4243C56.3273 66.3976 56.2573 66.3843 56.164 66.3843C56.024 66.3843 55.894 66.4443 55.774 66.5643C55.6607 66.6776 55.5673 66.8043 55.494 66.9443C55.4207 67.0843 55.384 67.191 55.384 67.2643V68.7743C55.384 68.921 55.384 69.0576 55.384 69.1843C55.3907 69.311 55.4073 69.4143 55.434 69.4943C55.4473 69.5276 55.514 69.5576 55.634 69.5843C55.754 69.611 55.8807 69.631 56.014 69.6443C56.1473 69.651 56.234 69.6543 56.274 69.6543C56.294 69.681 56.304 69.7276 56.304 69.7943C56.3107 69.861 56.3007 69.9076 56.274 69.9343C56.074 69.921 55.8707 69.911 55.664 69.9043C55.4573 69.891 55.2573 69.8843 55.064 69.8843C54.8773 69.8843 54.6973 69.891 54.524 69.9043C54.3507 69.911 54.164 69.921 53.964 69.9343C53.9373 69.9076 53.924 69.861 53.924 69.7943C53.9307 69.7276 53.944 69.681 53.964 69.6543C54.004 69.6543 54.0707 69.651 54.164 69.6443C54.264 69.631 54.3573 69.611 54.444 69.5843C54.5307 69.5576 54.5773 69.5276 54.584 69.4943C54.6107 69.4143 54.624 69.311 54.624 69.1843C54.6307 69.0576 54.634 68.921 54.634 68.7743V66.9543C54.634 66.8876 54.6307 66.801 54.624 66.6943C54.624 66.5876 54.6107 66.5043 54.584 66.4443C54.564 66.3843 54.5073 66.3443 54.414 66.3243C54.3207 66.2976 54.2273 66.2843 54.134 66.2843C54.0407 66.2776 53.9807 66.2743 53.954 66.2743C53.9473 66.261 53.9407 66.221 53.934 66.1543C53.9273 66.0876 53.934 66.041 53.954 66.0143C54.2073 65.981 54.454 65.931 54.694 65.8643C54.934 65.7976 55.1507 65.711 55.344 65.6043C55.3707 65.6043 55.394 65.6243 55.414 65.6643C55.4407 65.7043 55.454 65.7376 55.454 65.7643C55.454 65.7843 55.4473 65.861 55.434 65.9943C55.4207 66.1276 55.4073 66.2643 55.394 66.4043C55.3873 66.5376 55.384 66.6243 55.384 66.6643C55.384 66.6843 55.3873 66.6943 55.394 66.6943C55.4073 66.6943 55.4173 66.691 55.424 66.6843C55.4907 66.5443 55.584 66.3943 55.704 66.2343C55.8307 66.0676 55.9707 65.9276 56.124 65.8143C56.2773 65.6943 56.4273 65.6343 56.574 65.6343ZM58.3442 65.7543C58.5309 65.7543 58.6909 65.7476 58.8242 65.7343C58.9642 65.721 59.1309 65.711 59.3242 65.7043C59.3376 65.731 59.3409 65.781 59.3342 65.8543C59.3342 65.9276 59.3242 65.971 59.3042 65.9843C59.2776 65.9843 59.2242 65.991 59.1442 66.0043C59.0642 66.011 58.9876 66.031 58.9142 66.0643C58.8476 66.091 58.8142 66.141 58.8142 66.2143C58.8142 66.2276 58.8309 66.2776 58.8642 66.3643C58.9242 66.5176 59.0376 66.7943 59.2042 67.1943C59.3709 67.5943 59.5909 68.1176 59.8642 68.7643C60.1176 68.131 60.3109 67.6443 60.4442 67.3043C60.5842 66.9576 60.6542 66.761 60.6542 66.7143C60.6542 66.681 60.6309 66.6076 60.5842 66.4943C60.5442 66.3743 60.4909 66.2676 60.4242 66.1743C60.3709 66.0943 60.3009 66.0443 60.2142 66.0243C60.1276 65.9976 60.0542 65.9843 59.9942 65.9843C59.9676 65.971 59.9542 65.9276 59.9542 65.8543C59.9542 65.781 59.9676 65.731 59.9942 65.7043C60.1276 65.711 60.2342 65.7176 60.3142 65.7243C60.4009 65.731 60.4842 65.7376 60.5642 65.7443C60.6442 65.751 60.7509 65.7543 60.8842 65.7543C61.0709 65.7543 61.2376 65.7476 61.3842 65.7343C61.5309 65.721 61.7009 65.711 61.8942 65.7043C61.9076 65.731 61.9142 65.781 61.9142 65.8543C61.9142 65.921 61.9042 65.9643 61.8842 65.9843C61.5642 65.9843 61.4042 66.091 61.4042 66.3043C61.4042 66.3376 61.4109 66.371 61.4242 66.4043C61.4642 66.531 61.5542 66.7776 61.6942 67.1443C61.8409 67.511 62.0476 68.041 62.3142 68.7343C62.5076 68.261 62.6809 67.831 62.8342 67.4443C62.9942 67.051 63.1076 66.751 63.1742 66.5443C63.1942 66.491 63.2076 66.4443 63.2142 66.4043C63.2209 66.3643 63.2242 66.3343 63.2242 66.3143C63.2242 66.221 63.1909 66.1543 63.1242 66.1143C63.0576 66.0676 62.9776 66.0376 62.8842 66.0243C62.7976 66.0043 62.7176 65.991 62.6442 65.9843C62.6242 65.971 62.6109 65.9276 62.6042 65.8543C62.6042 65.781 62.6176 65.731 62.6442 65.7043C62.7776 65.711 62.8809 65.7176 62.9542 65.7243C63.0276 65.731 63.1009 65.7376 63.1742 65.7443C63.2542 65.751 63.3609 65.7543 63.4942 65.7543C63.6809 65.7543 63.8276 65.7476 63.9342 65.7343C64.0409 65.721 64.1909 65.711 64.3842 65.7043C64.3909 65.7176 64.3942 65.761 64.3942 65.8343C64.4009 65.9076 64.3876 65.9576 64.3542 65.9843C64.3276 65.9843 64.2676 65.9943 64.1742 66.0143C64.0876 66.0343 63.9942 66.071 63.8942 66.1243C63.8009 66.171 63.7342 66.2443 63.6942 66.3443C63.5142 66.7976 63.3509 67.2043 63.2042 67.5643C63.0642 67.9176 62.9209 68.2743 62.7742 68.6343C62.6342 68.9876 62.4676 69.391 62.2742 69.8443C62.2609 69.8843 62.2309 69.921 62.1842 69.9543C62.1442 69.9943 62.1076 70.0143 62.0742 70.0143C62.0076 70.0143 61.9676 70.001 61.9542 69.9743L60.8742 67.1543L59.8142 69.8243C59.8076 69.8376 59.7776 69.871 59.7242 69.9243C59.6776 69.9843 59.6276 70.0143 59.5742 70.0143C59.5276 70.0143 59.4976 70.001 59.4842 69.9743C59.3309 69.5943 59.1909 69.2543 59.0642 68.9543C58.9442 68.6476 58.8242 68.3543 58.7042 68.0743C58.5909 67.7876 58.4676 67.4976 58.3342 67.2043C58.2076 66.9043 58.0642 66.571 57.9042 66.2043C57.8576 66.0976 57.7709 66.0343 57.6442 66.0143C57.5242 65.9943 57.4342 65.9843 57.3742 65.9843C57.3609 65.951 57.3542 65.9043 57.3542 65.8443C57.3542 65.7776 57.3609 65.731 57.3742 65.7043C57.5742 65.711 57.7342 65.721 57.8542 65.7343C57.9809 65.7476 58.1442 65.7543 58.3442 65.7543ZM65.3385 67.4843C65.3319 67.8976 65.4019 68.2443 65.5485 68.5243C65.6952 68.8043 65.8919 69.0143 66.1385 69.1543C66.3852 69.2876 66.6519 69.3543 66.9385 69.3543C67.1185 69.3543 67.2819 69.3243 67.4285 69.2643C67.5752 69.1976 67.6985 69.1243 67.7985 69.0443C67.8985 68.9576 67.9685 68.891 68.0085 68.8443C68.0152 68.8443 68.0285 68.8576 68.0485 68.8843C68.0752 68.9043 68.0885 68.9343 68.0885 68.9743C68.0885 69.0276 68.0685 69.0876 68.0285 69.1543C67.9685 69.2476 67.8752 69.361 67.7485 69.4943C67.6219 69.621 67.4619 69.7343 67.2685 69.8343C67.0752 69.9343 66.8519 69.9843 66.5985 69.9843C66.2185 69.9843 65.8819 69.8943 65.5885 69.7143C65.2952 69.5343 65.0652 69.291 64.8985 68.9843C64.7319 68.6776 64.6485 68.3343 64.6485 67.9543C64.6485 67.6276 64.7052 67.3243 64.8185 67.0443C64.9385 66.7576 65.0919 66.511 65.2785 66.3043C65.4719 66.091 65.6819 65.9243 65.9085 65.8043C66.1352 65.6843 66.3552 65.6243 66.5685 65.6243C66.8619 65.6243 67.1019 65.6743 67.2885 65.7743C67.4819 65.8743 67.6319 65.9976 67.7385 66.1443C67.8519 66.291 67.9285 66.4376 67.9685 66.5843C68.0152 66.731 68.0385 66.8543 68.0385 66.9543C68.0385 67.0943 68.0219 67.2043 67.9885 67.2843C67.9552 67.3643 67.8919 67.4076 67.7985 67.4143C67.7385 67.421 67.6185 67.4276 67.4385 67.4343C67.2652 67.4343 67.0652 67.4376 66.8385 67.4443C66.6119 67.451 66.3885 67.4576 66.1685 67.4643C65.9485 67.471 65.7619 67.4776 65.6085 67.4843C65.4552 67.4843 65.3652 67.4843 65.3385 67.4843ZM65.3885 67.1243H66.9785C67.0385 67.1243 67.0885 67.1076 67.1285 67.0743C67.1752 67.041 67.2019 66.981 67.2085 66.8943C67.2152 66.8143 67.1919 66.701 67.1385 66.5543C67.0852 66.4076 66.9985 66.2743 66.8785 66.1543C66.7652 66.0343 66.6085 65.9743 66.4085 65.9743C66.2019 65.9743 66.0319 66.0343 65.8985 66.1543C65.7652 66.2676 65.6585 66.401 65.5785 66.5543C65.5052 66.701 65.4519 66.8343 65.4185 66.9543C65.3919 67.0676 65.3819 67.1243 65.3885 67.1243ZM70.798 65.6443C70.9847 65.6443 71.158 65.7043 71.318 65.8243C71.4847 65.9443 71.618 66.1043 71.718 66.3043C71.818 66.5043 71.868 66.731 71.868 66.9843V68.9943C71.868 69.121 71.8913 69.231 71.938 69.3243C71.9847 69.411 72.0613 69.4543 72.168 69.4543C72.2613 69.4543 72.3347 69.4343 72.388 69.3943C72.4413 69.3543 72.4747 69.331 72.488 69.3243C72.5013 69.3243 72.5113 69.3343 72.518 69.3543C72.5247 69.3743 72.528 69.391 72.528 69.4043C72.528 69.4776 72.5113 69.541 72.478 69.5943C72.438 69.6276 72.3713 69.6743 72.278 69.7343C72.1913 69.7943 72.098 69.8476 71.998 69.8943C71.9047 69.941 71.8213 69.9643 71.748 69.9643C71.608 69.9643 71.4813 69.8943 71.368 69.7543C71.2613 69.6143 71.1913 69.471 71.158 69.3243C71.1313 69.351 71.068 69.401 70.968 69.4743C70.8747 69.5476 70.7647 69.6243 70.638 69.7043C70.5113 69.7776 70.3847 69.8443 70.258 69.9043C70.138 69.9576 70.0347 69.9843 69.948 69.9843C69.628 69.9843 69.358 69.8776 69.138 69.6643C68.918 69.4443 68.808 69.1776 68.808 68.8643C68.808 68.6643 68.8613 68.4943 68.968 68.3543C69.0813 68.2076 69.1913 68.1143 69.298 68.0743C69.4847 68.0076 69.6913 67.9376 69.918 67.8643C70.1513 67.7843 70.368 67.7076 70.568 67.6343C70.768 67.561 70.9147 67.5043 71.008 67.4643C71.0613 67.4443 71.0947 67.421 71.108 67.3943C71.1213 67.361 71.128 67.301 71.128 67.2143V66.9543C71.128 66.8076 71.0913 66.6643 71.018 66.5243C70.9447 66.3776 70.8447 66.2576 70.718 66.1643C70.5913 66.0643 70.448 66.0143 70.288 66.0143C70.1213 66.0143 69.998 66.0676 69.918 66.1743C69.838 66.281 69.7813 66.431 69.748 66.6243C69.688 66.9376 69.5347 67.0943 69.288 67.0943C69.1813 67.0943 69.098 67.051 69.038 66.9643C68.9847 66.8776 68.958 66.7843 68.958 66.6843C68.958 66.6643 68.9647 66.6276 68.978 66.5743C68.9913 66.5143 69.008 66.471 69.028 66.4443C69.128 66.351 69.2713 66.241 69.458 66.1143C69.6447 65.9876 69.8547 65.8776 70.088 65.7843C70.328 65.691 70.5647 65.6443 70.798 65.6443ZM70.278 69.4543C70.3913 69.4543 70.5147 69.4276 70.648 69.3743C70.7813 69.321 70.8947 69.2643 70.988 69.2043C71.0813 69.1376 71.128 69.0876 71.128 69.0543V67.7243C71.0013 67.7643 70.8413 67.8143 70.648 67.8743C70.4547 67.9343 70.3113 67.981 70.218 68.0143C70.0447 68.081 69.9013 68.1776 69.788 68.3043C69.6747 68.431 69.618 68.5876 69.618 68.7743C69.618 68.9543 69.6813 69.1143 69.808 69.2543C69.9347 69.3876 70.0913 69.4543 70.278 69.4543ZM75.6072 65.6343C75.7339 65.6343 75.8539 65.6643 75.9672 65.7243C76.0806 65.7776 76.1606 65.8443 76.2072 65.9243C76.2206 65.951 76.2306 65.9876 76.2372 66.0343C76.2439 66.081 76.2472 66.131 76.2472 66.1843C76.2472 66.3643 76.2039 66.4943 76.1172 66.5743C76.0372 66.6543 75.9706 66.6943 75.9172 66.6943C75.8506 66.6943 75.7872 66.671 75.7272 66.6243C75.6672 66.5776 75.6106 66.5376 75.5572 66.5043C75.5106 66.471 75.4606 66.4443 75.4072 66.4243C75.3606 66.3976 75.2906 66.3843 75.1972 66.3843C75.0572 66.3843 74.9272 66.4443 74.8072 66.5643C74.6939 66.6776 74.6006 66.8043 74.5272 66.9443C74.4539 67.0843 74.4172 67.191 74.4172 67.2643V68.7743C74.4172 68.921 74.4172 69.0576 74.4172 69.1843C74.4239 69.311 74.4406 69.4143 74.4672 69.4943C74.4806 69.5276 74.5472 69.5576 74.6672 69.5843C74.7872 69.611 74.9139 69.631 75.0472 69.6443C75.1806 69.651 75.2672 69.6543 75.3072 69.6543C75.3272 69.681 75.3372 69.7276 75.3372 69.7943C75.3439 69.861 75.3339 69.9076 75.3072 69.9343C75.1072 69.921 74.9039 69.911 74.6972 69.9043C74.4906 69.891 74.2906 69.8843 74.0972 69.8843C73.9106 69.8843 73.7306 69.891 73.5572 69.9043C73.3839 69.911 73.1972 69.921 72.9972 69.9343C72.9706 69.9076 72.9572 69.861 72.9572 69.7943C72.9639 69.7276 72.9772 69.681 72.9972 69.6543C73.0372 69.6543 73.1039 69.651 73.1972 69.6443C73.2972 69.631 73.3906 69.611 73.4772 69.5843C73.5639 69.5576 73.6106 69.5276 73.6172 69.4943C73.6439 69.4143 73.6572 69.311 73.6572 69.1843C73.6639 69.0576 73.6672 68.921 73.6672 68.7743V66.9543C73.6672 66.8876 73.6639 66.801 73.6572 66.6943C73.6572 66.5876 73.6439 66.5043 73.6172 66.4443C73.5972 66.3843 73.5406 66.3443 73.4472 66.3243C73.3539 66.2976 73.2606 66.2843 73.1672 66.2843C73.0739 66.2776 73.0139 66.2743 72.9872 66.2743C72.9806 66.261 72.9739 66.221 72.9672 66.1543C72.9606 66.0876 72.9672 66.041 72.9872 66.0143C73.2406 65.981 73.4872 65.931 73.7272 65.8643C73.9672 65.7976 74.1839 65.711 74.3772 65.6043C74.4039 65.6043 74.4272 65.6243 74.4472 65.6643C74.4739 65.7043 74.4872 65.7376 74.4872 65.7643C74.4872 65.7843 74.4806 65.861 74.4672 65.9943C74.4539 66.1276 74.4406 66.2643 74.4272 66.4043C74.4206 66.5376 74.4172 66.6243 74.4172 66.6643C74.4172 66.6843 74.4206 66.6943 74.4272 66.6943C74.4406 66.6943 74.4506 66.691 74.4572 66.6843C74.5239 66.5443 74.6172 66.3943 74.7372 66.2343C74.8639 66.0676 75.0039 65.9276 75.1572 65.8143C75.3106 65.6943 75.4606 65.6343 75.6072 65.6343Z" fill="white"/>
<line x1="0.25" y1="76.75" x2="107.75" y2="76.75" stroke="white" stroke-width="0.5" stroke-linecap="round"/>
<path d="M23.4899 36.4426C23.8619 36.4426 24.1679 36.4666 24.4079 36.5146C24.6599 36.5506 24.9119 36.6046 25.1639 36.6766C25.4279 36.7486 25.7519 36.8326 26.1359 36.9286C26.2079 37.3846 26.2619 37.8586 26.2979 38.3506C26.3459 38.8306 26.3759 39.1906 26.3879 39.4306C26.3999 39.4906 26.3579 39.5386 26.2619 39.5746C26.1659 39.5986 26.0879 39.6106 26.0279 39.6106C25.9439 39.6106 25.8779 39.5866 25.8299 39.5386C25.8059 39.3226 25.7339 39.0706 25.6139 38.7826C25.4939 38.4946 25.3259 38.2186 25.1099 37.9546C24.9059 37.6906 24.6539 37.4746 24.3539 37.3066C24.0659 37.1266 23.7359 37.0366 23.3639 37.0366C22.8839 37.0366 22.5059 37.1386 22.2299 37.3426C21.9539 37.5466 21.7559 37.7986 21.6359 38.0986C21.5159 38.3986 21.4559 38.6926 21.4559 38.9806C21.4559 39.4486 21.5759 39.8386 21.8159 40.1506C22.0679 40.4626 22.3799 40.7386 22.7519 40.9786C23.1359 41.2186 23.5199 41.4646 23.9039 41.7166C24.1919 41.8966 24.5099 42.0946 24.8579 42.3106C25.2059 42.5266 25.5419 42.7666 25.8659 43.0306C26.1899 43.2946 26.4539 43.6006 26.6579 43.9486C26.8619 44.2846 26.9639 44.6686 26.9639 45.1006C26.9639 45.7366 26.7839 46.3006 26.4239 46.7926C26.0759 47.2726 25.6199 47.6506 25.0559 47.9266C24.5039 48.1906 23.9159 48.3226 23.2919 48.3226C22.7039 48.3226 22.1339 48.2566 21.5819 48.1246C21.0419 47.9926 20.5559 47.8846 20.1239 47.8006C20.0519 47.4526 19.9859 47.0806 19.9259 46.6846C19.8779 46.2886 19.8359 45.9406 19.7999 45.6406C19.7759 45.3406 19.7639 45.1546 19.7639 45.0826C19.8239 45.0226 19.8899 44.9746 19.9619 44.9386C20.0459 44.8906 20.1299 44.8666 20.2139 44.8666C20.3219 44.8666 20.3879 44.9206 20.4119 45.0286C20.4479 45.1966 20.5199 45.4306 20.6279 45.7306C20.7479 46.0186 20.9159 46.3186 21.1319 46.6306C21.3599 46.9426 21.6479 47.2066 21.9959 47.4226C22.3559 47.6266 22.7999 47.7286 23.3279 47.7286C23.8919 47.7286 24.3839 47.5426 24.8039 47.1706C25.2239 46.7866 25.4339 46.2526 25.4339 45.5686C25.4339 45.0766 25.3199 44.6926 25.0919 44.4166C24.8759 44.1406 24.5879 43.9006 24.2279 43.6966C23.8799 43.4926 23.5019 43.2766 23.0939 43.0486C22.6499 42.7846 22.1879 42.4966 21.7079 42.1846C21.2399 41.8606 20.8439 41.4826 20.5199 41.0506C20.1959 40.6186 20.0339 40.1086 20.0339 39.5206C20.0339 38.8966 20.1959 38.3566 20.5199 37.9006C20.8559 37.4326 21.2879 37.0726 21.8159 36.8206C22.3439 36.5686 22.9019 36.4426 23.4899 36.4426ZM29.3981 45.6946C29.3981 45.6946 29.4521 45.5506 29.5601 45.2626C29.6801 44.9626 29.8361 44.5606 30.0281 44.0566C30.2201 43.5526 30.4361 42.9946 30.6761 42.3826C30.9281 41.7586 31.1801 41.1226 31.4321 40.4746C31.6841 39.8146 31.9241 39.1846 32.1521 38.5846C32.3921 37.9846 32.6021 37.4566 32.7821 37.0006C32.8301 36.9046 32.9321 36.7966 33.0881 36.6766C33.2561 36.5566 33.3821 36.4966 33.4661 36.4966C33.4901 36.4966 33.5021 36.5026 33.5021 36.5146C33.5141 36.5146 33.5321 36.5206 33.5561 36.5326L37.1381 45.9286C37.4021 46.6246 37.5521 47.0086 37.5881 47.0806C37.6481 47.2126 37.7621 47.3266 37.9301 47.4226C38.1101 47.5186 38.2841 47.5906 38.4521 47.6386C38.6321 47.6746 38.7461 47.6926 38.7941 47.6926C38.8421 47.7526 38.8601 47.8486 38.8481 47.9806C38.8361 48.1006 38.8241 48.1726 38.8121 48.1966C38.4641 48.1726 38.1521 48.1546 37.8761 48.1426C37.6001 48.1186 37.2701 48.1066 36.8861 48.1066C36.4781 48.1066 36.1361 48.1186 35.8601 48.1426C35.5961 48.1546 35.2601 48.1726 34.8521 48.1966C34.8041 48.1486 34.7801 48.0646 34.7801 47.9446C34.7921 47.8246 34.8221 47.7406 34.8701 47.6926C34.9781 47.6926 35.1461 47.6746 35.3741 47.6386C35.6021 47.5906 35.7581 47.5306 35.8421 47.4586C35.8901 47.4106 35.9141 47.3266 35.9141 47.2066C35.9141 47.0986 35.8721 46.9186 35.7881 46.6666C35.7161 46.4026 35.6201 46.1086 35.5001 45.7846C35.3801 45.4606 35.2601 45.1486 35.1401 44.8486C35.0201 44.5366 34.9181 44.2846 34.8341 44.0926C34.7621 43.8886 34.7261 43.7866 34.7261 43.7866C34.7261 43.7866 34.7141 43.7746 34.6901 43.7506C34.6661 43.7266 34.6421 43.7146 34.6181 43.7146C34.4381 43.7026 34.2161 43.6966 33.9521 43.6966C33.6881 43.6966 33.4421 43.6966 33.2141 43.6966C33.1541 43.6966 33.0941 43.6966 33.0341 43.6966C32.9741 43.6966 32.9201 43.6966 32.8721 43.6966C32.5121 43.6966 32.2061 43.7026 31.9541 43.7146C31.7021 43.7146 31.3781 43.7266 30.9821 43.7506C30.9701 43.7506 30.9521 43.7626 30.9281 43.7866C30.9041 43.7986 30.8921 43.8046 30.8921 43.8046C30.8921 43.8046 30.8441 43.9246 30.7481 44.1646C30.6641 44.4046 30.5561 44.6926 30.4241 45.0286C30.3041 45.3526 30.1961 45.6586 30.1001 45.9466C29.9921 46.2466 29.9201 46.4986 29.8841 46.7026C29.8601 46.9066 29.8481 47.0686 29.8481 47.1886C29.8481 47.3206 29.9381 47.4286 30.1181 47.5126C30.3101 47.5846 30.5021 47.6326 30.6941 47.6566C30.8981 47.6806 31.0241 47.6926 31.0721 47.6926C31.0961 47.7166 31.1141 47.7946 31.1261 47.9266C31.1381 48.0466 31.1321 48.1366 31.1081 48.1966C30.8801 48.1846 30.6821 48.1726 30.5141 48.1606C30.3581 48.1486 30.1961 48.1366 30.0281 48.1246C29.8721 48.1126 29.6621 48.1066 29.3981 48.1066C29.1341 48.1066 28.9121 48.1126 28.7321 48.1246C28.5521 48.1366 28.3721 48.1486 28.1921 48.1606C28.0121 48.1726 27.7841 48.1846 27.5081 48.1966C27.4841 48.1726 27.4721 48.1006 27.4721 47.9806C27.4721 47.8486 27.4841 47.7526 27.5081 47.6926C27.6161 47.6926 27.7961 47.6686 28.0481 47.6206C28.3121 47.5606 28.4861 47.4706 28.5701 47.3506C28.7501 47.1226 28.9001 46.8706 29.0201 46.5946C29.1521 46.3066 29.2781 46.0066 29.3981 45.6946ZM32.8361 38.6206L31.2341 42.9046C31.2341 42.9046 31.2341 42.9166 31.2341 42.9406C31.2461 42.9646 31.2581 42.9766 31.2701 42.9766C31.4981 42.9886 31.7681 43.0006 32.0801 43.0126C32.4041 43.0126 32.6621 43.0126 32.8541 43.0126C33.1301 43.0126 33.3761 43.0066 33.5921 42.9946C33.8201 42.9826 34.0661 42.9706 34.3301 42.9586C34.3541 42.9586 34.3661 42.9466 34.3661 42.9226C34.3781 42.8866 34.3841 42.8686 34.3841 42.8686L32.8361 38.6206ZM42.2809 46.1086V43.4446C42.2809 43.2886 42.2389 43.1266 42.1549 42.9586C41.9029 42.4906 41.6749 42.0826 41.4709 41.7346C41.2789 41.3866 41.0929 41.0566 40.9129 40.7446C40.7329 40.4326 40.5409 40.1026 40.3369 39.7546C40.1449 39.3946 39.9169 38.9806 39.6529 38.5126C39.4609 38.1886 39.2809 37.9426 39.1129 37.7746C38.9449 37.5946 38.7409 37.4326 38.5009 37.2886C38.3449 37.1926 38.1649 37.1266 37.9609 37.0906C37.7689 37.0426 37.6189 37.0186 37.5109 37.0186C37.4629 37.0186 37.4389 36.9466 37.4389 36.8026C37.4389 36.6586 37.4629 36.5626 37.5109 36.5146C37.9429 36.5266 38.3089 36.5446 38.6089 36.5686C38.9089 36.5806 39.2749 36.5866 39.7069 36.5866C40.1389 36.5866 40.5349 36.5806 40.8949 36.5686C41.2549 36.5446 41.6089 36.5266 41.9569 36.5146C41.9809 36.5626 41.9929 36.6586 41.9929 36.8026C41.9929 36.9466 41.9689 37.0186 41.9209 37.0186C41.8369 37.0186 41.7109 37.0366 41.5429 37.0726C41.3749 37.0966 41.2189 37.1506 41.0749 37.2346C40.9429 37.3066 40.8769 37.4206 40.8769 37.5766C40.8769 37.7086 40.9429 37.8826 41.0749 38.0986L43.5229 42.3286C43.7389 41.9446 43.9669 41.5246 44.2069 41.0686C44.4469 40.6006 44.6749 40.1506 44.8909 39.7186C45.1069 39.2746 45.2929 38.8786 45.4489 38.5306C45.6169 38.1826 45.7369 37.9306 45.8089 37.7746C45.8209 37.7506 45.8329 37.7146 45.8449 37.6666C45.8569 37.6066 45.8629 37.5526 45.8629 37.5046C45.8629 37.4086 45.7789 37.3066 45.6109 37.1986C45.4549 37.0906 45.1309 37.0366 44.6389 37.0366C44.6149 37.0366 44.5969 36.9586 44.5849 36.8026C44.5849 36.6346 44.5909 36.5386 44.6029 36.5146C44.9269 36.5266 45.2149 36.5446 45.4669 36.5686C45.7309 36.5926 46.0249 36.6046 46.3489 36.6046C46.6609 36.6046 46.9129 36.5986 47.1049 36.5866C47.3089 36.5746 47.5009 36.5626 47.6809 36.5506C47.8609 36.5386 48.0649 36.5266 48.2929 36.5146C48.3169 36.5626 48.3229 36.6646 48.3109 36.8206C48.2989 36.9646 48.2809 37.0366 48.2569 37.0366C48.2089 37.0366 48.0829 37.0486 47.8789 37.0726C47.6749 37.0846 47.4589 37.1386 47.2309 37.2346C47.0029 37.3306 46.8229 37.4986 46.6909 37.7386C46.5229 38.0266 46.3189 38.3926 46.0789 38.8366C45.8389 39.2686 45.5869 39.7306 45.3229 40.2226C45.0589 40.7026 44.8009 41.1766 44.5489 41.6446C44.3089 42.1006 44.0929 42.5026 43.9009 42.8506C43.8529 42.9346 43.8289 43.0126 43.8289 43.0846C43.8289 43.1566 43.8289 43.2286 43.8289 43.3006C43.8289 43.3366 43.8289 43.3666 43.8289 43.3906C43.8289 43.7386 43.8289 44.1286 43.8289 44.5606C43.8289 44.9806 43.8229 45.3466 43.8109 45.6586C43.8109 45.9586 43.8109 46.1086 43.8109 46.1086C43.8109 46.1446 43.8109 46.1806 43.8109 46.2166C43.8109 46.2526 43.8109 46.2886 43.8109 46.3246C43.8109 46.5526 43.8109 46.7626 43.8109 46.9546C43.8229 47.1346 43.8469 47.2846 43.8829 47.4046C43.9069 47.4646 44.0029 47.5186 44.1709 47.5666C44.3389 47.6146 44.5189 47.6506 44.7109 47.6746C44.9029 47.6866 45.0349 47.6926 45.1069 47.6926C45.1429 47.7406 45.1609 47.8246 45.1609 47.9446C45.1729 48.0646 45.1549 48.1486 45.1069 48.1966C44.7469 48.1726 44.3989 48.1546 44.0629 48.1426C43.7389 48.1186 43.4029 48.1066 43.0549 48.1066C42.7189 48.1066 42.3769 48.1186 42.0289 48.1426C41.6809 48.1546 41.3269 48.1726 40.9669 48.1966C40.9189 48.1486 40.8949 48.0646 40.8949 47.9446C40.9069 47.8246 40.9309 47.7406 40.9669 47.6926C41.0389 47.6926 41.1709 47.6866 41.3629 47.6746C41.5549 47.6506 41.7349 47.6146 41.9029 47.5666C42.0829 47.5186 42.1789 47.4646 42.1909 47.4046C42.2389 47.2606 42.2629 47.0746 42.2629 46.8466C42.2749 46.6186 42.2809 46.3726 42.2809 46.1086Z" fill="white"/>
<path d="M66.6899 46.1086V43.4446C66.6899 43.2886 66.6479 43.1266 66.5639 42.9586C66.3119 42.4906 66.0839 42.0826 65.8799 41.7346C65.6879 41.3866 65.5019 41.0566 65.3219 40.7446C65.1419 40.4326 64.9499 40.1026 64.7459 39.7546C64.5539 39.3946 64.3259 38.9806 64.0619 38.5126C63.8699 38.1886 63.6899 37.9426 63.5219 37.7746C63.3539 37.5946 63.1499 37.4326 62.9099 37.2886C62.7539 37.1926 62.5739 37.1266 62.3699 37.0906C62.1779 37.0426 62.0279 37.0186 61.9199 37.0186C61.8719 37.0186 61.8479 36.9466 61.8479 36.8026C61.8479 36.6586 61.8719 36.5626 61.9199 36.5146C62.3519 36.5266 62.7179 36.5446 63.0179 36.5686C63.3179 36.5806 63.6839 36.5866 64.1159 36.5866C64.5479 36.5866 64.9439 36.5806 65.3039 36.5686C65.6639 36.5446 66.0179 36.5266 66.3659 36.5146C66.3899 36.5626 66.4019 36.6586 66.4019 36.8026C66.4019 36.9466 66.3779 37.0186 66.3299 37.0186C66.2459 37.0186 66.1199 37.0366 65.9519 37.0726C65.7839 37.0966 65.6279 37.1506 65.4839 37.2346C65.3519 37.3066 65.2859 37.4206 65.2859 37.5766C65.2859 37.7086 65.3519 37.8826 65.4839 38.0986L67.9319 42.3286C68.1479 41.9446 68.3759 41.5246 68.6159 41.0686C68.8559 40.6006 69.0839 40.1506 69.2999 39.7186C69.5159 39.2746 69.7019 38.8786 69.8579 38.5306C70.0259 38.1826 70.1459 37.9306 70.2179 37.7746C70.2299 37.7506 70.2419 37.7146 70.2539 37.6666C70.2659 37.6066 70.2719 37.5526 70.2719 37.5046C70.2719 37.4086 70.1879 37.3066 70.0199 37.1986C69.8639 37.0906 69.5399 37.0366 69.0479 37.0366C69.0239 37.0366 69.0059 36.9586 68.9939 36.8026C68.9939 36.6346 68.9999 36.5386 69.0119 36.5146C69.3359 36.5266 69.6239 36.5446 69.8759 36.5686C70.1399 36.5926 70.4339 36.6046 70.7579 36.6046C71.0699 36.6046 71.3219 36.5986 71.5139 36.5866C71.7179 36.5746 71.9099 36.5626 72.0899 36.5506C72.2699 36.5386 72.4739 36.5266 72.7019 36.5146C72.7259 36.5626 72.7319 36.6646 72.7199 36.8206C72.7079 36.9646 72.6899 37.0366 72.6659 37.0366C72.6179 37.0366 72.4919 37.0486 72.2879 37.0726C72.0839 37.0846 71.8679 37.1386 71.6399 37.2346C71.4119 37.3306 71.2319 37.4986 71.0999 37.7386C70.9319 38.0266 70.7279 38.3926 70.4879 38.8366C70.2479 39.2686 69.9959 39.7306 69.7319 40.2226C69.4679 40.7026 69.2099 41.1766 68.9579 41.6446C68.7179 42.1006 68.5019 42.5026 68.3099 42.8506C68.2619 42.9346 68.2379 43.0126 68.2379 43.0846C68.2379 43.1566 68.2379 43.2286 68.2379 43.3006C68.2379 43.3366 68.2379 43.3666 68.2379 43.3906C68.2379 43.7386 68.2379 44.1286 68.2379 44.5606C68.2379 44.9806 68.2319 45.3466 68.2199 45.6586C68.2199 45.9586 68.2199 46.1086 68.2199 46.1086C68.2199 46.1446 68.2199 46.1806 68.2199 46.2166C68.2199 46.2526 68.2199 46.2886 68.2199 46.3246C68.2199 46.5526 68.2199 46.7626 68.2199 46.9546C68.2319 47.1346 68.2559 47.2846 68.2919 47.4046C68.3159 47.4646 68.4119 47.5186 68.5799 47.5666C68.7479 47.6146 68.9279 47.6506 69.1199 47.6746C69.3119 47.6866 69.4439 47.6926 69.5159 47.6926C69.5519 47.7406 69.5699 47.8246 69.5699 47.9446C69.5819 48.0646 69.5639 48.1486 69.5159 48.1966C69.1559 48.1726 68.8079 48.1546 68.4719 48.1426C68.1479 48.1186 67.8119 48.1066 67.4639 48.1066C67.1279 48.1066 66.7859 48.1186 66.4379 48.1426C66.0899 48.1546 65.7359 48.1726 65.3759 48.1966C65.3279 48.1486 65.3039 48.0646 65.3039 47.9446C65.3159 47.8246 65.3399 47.7406 65.3759 47.6926C65.4479 47.6926 65.5799 47.6866 65.7719 47.6746C65.9639 47.6506 66.1439 47.6146 66.3119 47.5666C66.4919 47.5186 66.5879 47.4646 66.5999 47.4046C66.6479 47.2606 66.6719 47.0746 66.6719 46.8466C66.6839 46.6186 66.6899 46.3726 66.6899 46.1086ZM75.474 36.5866C76.302 36.5866 77.214 36.5686 78.21 36.5326C79.206 36.4966 80.178 36.4786 81.126 36.4786C81.186 36.9226 81.264 37.3306 81.36 37.7026C81.456 38.0746 81.546 38.4586 81.63 38.8546C81.57 38.9146 81.468 38.9446 81.324 38.9446C81.168 38.9446 81.084 38.9026 81.072 38.8186C80.88 38.1106 80.61 37.6606 80.262 37.4686C79.914 37.2766 79.506 37.1806 79.038 37.1806H77.526C77.454 37.1806 77.322 37.1866 77.13 37.1986C76.938 37.1986 76.758 37.2106 76.59 37.2346C76.422 37.2586 76.326 37.3006 76.302 37.3606C76.266 37.4806 76.242 37.6366 76.23 37.8286C76.23 38.0206 76.23 38.2186 76.23 38.4226C76.23 38.5066 76.23 38.5726 76.23 38.6206V41.8966C76.23 41.9446 76.308 41.9746 76.464 41.9866C76.62 41.9986 76.794 42.0046 76.986 42.0046H77.904C78.324 42.0046 78.648 41.9926 78.876 41.9686C79.116 41.9446 79.29 41.8906 79.398 41.8066C79.506 41.7226 79.59 41.5966 79.65 41.4286C79.71 41.2606 79.776 41.0326 79.848 40.7446C79.86 40.6606 79.944 40.6186 80.1 40.6186C80.244 40.6186 80.346 40.6486 80.406 40.7086V44.0206C80.358 44.0686 80.262 44.0926 80.118 44.0926C79.974 44.0926 79.884 44.0506 79.848 43.9666C79.764 43.6306 79.692 43.3906 79.632 43.2466C79.584 43.0906 79.536 42.9886 79.488 42.9406C79.452 42.8806 79.404 42.8326 79.344 42.7966C79.284 42.7486 79.146 42.7186 78.93 42.7066C78.714 42.6826 78.474 42.6706 78.21 42.6706C77.958 42.6586 77.718 42.6526 77.49 42.6526C77.334 42.6526 77.154 42.6586 76.95 42.6706C76.758 42.6706 76.59 42.6826 76.446 42.7066C76.302 42.7186 76.23 42.7546 76.23 42.8146V46.1626C76.23 46.1866 76.23 46.2226 76.23 46.2706C76.23 46.4386 76.23 46.6546 76.23 46.9186C76.242 47.1826 76.272 47.3326 76.32 47.3686C76.44 47.4526 76.584 47.5066 76.752 47.5306C76.932 47.5426 77.208 47.5486 77.58 47.5486H78.426C78.846 47.5486 79.26 47.5066 79.668 47.4226C80.076 47.3386 80.4 47.2186 80.64 47.0626C80.916 46.8946 81.132 46.6546 81.288 46.3426C81.444 46.0186 81.594 45.6706 81.738 45.2986C81.762 45.2266 81.846 45.1906 81.99 45.1906C82.206 45.1906 82.35 45.2266 82.422 45.2986C82.254 45.7786 82.068 46.2886 81.864 46.8286C81.672 47.3686 81.546 47.8306 81.486 48.2146C80.538 48.2146 79.596 48.2026 78.66 48.1786C77.724 48.1546 76.668 48.1426 75.492 48.1426C75.084 48.1426 74.718 48.1486 74.394 48.1606C74.07 48.1846 73.734 48.1966 73.386 48.1966C73.338 48.1486 73.314 48.0646 73.314 47.9446C73.326 47.8246 73.35 47.7406 73.386 47.6926C73.458 47.6926 73.59 47.6866 73.782 47.6746C73.974 47.6506 74.154 47.6146 74.322 47.5666C74.502 47.5186 74.598 47.4646 74.61 47.4046C74.658 47.2606 74.682 47.0746 74.682 46.8466C74.694 46.6186 74.7 46.3726 74.7 46.1086V38.6026C74.7 38.3386 74.694 38.0926 74.682 37.8646C74.682 37.6246 74.658 37.4326 74.61 37.2886C74.598 37.2166 74.502 37.1626 74.322 37.1266C74.154 37.0906 73.974 37.0666 73.782 37.0546C73.59 37.0306 73.458 37.0186 73.386 37.0186C73.35 36.9706 73.326 36.8866 73.314 36.7666C73.314 36.6466 73.338 36.5626 73.386 36.5146C73.746 36.5266 74.1 36.5446 74.448 36.5686C74.796 36.5806 75.138 36.5866 75.474 36.5866ZM87.5024 36.4426C87.8744 36.4426 88.1804 36.4666 88.4204 36.5146C88.6724 36.5506 88.9244 36.6046 89.1764 36.6766C89.4404 36.7486 89.7644 36.8326 90.1484 36.9286C90.2204 37.3846 90.2744 37.8586 90.3104 38.3506C90.3584 38.8306 90.3884 39.1906 90.4004 39.4306C90.4124 39.4906 90.3704 39.5386 90.2744 39.5746C90.1784 39.5986 90.1004 39.6106 90.0404 39.6106C89.9564 39.6106 89.8904 39.5866 89.8424 39.5386C89.8184 39.3226 89.7464 39.0706 89.6264 38.7826C89.5064 38.4946 89.3384 38.2186 89.1224 37.9546C88.9184 37.6906 88.6664 37.4746 88.3664 37.3066C88.0784 37.1266 87.7484 37.0366 87.3764 37.0366C86.8964 37.0366 86.5184 37.1386 86.2424 37.3426C85.9664 37.5466 85.7684 37.7986 85.6484 38.0986C85.5284 38.3986 85.4684 38.6926 85.4684 38.9806C85.4684 39.4486 85.5884 39.8386 85.8284 40.1506C86.0804 40.4626 86.3924 40.7386 86.7644 40.9786C87.1484 41.2186 87.5324 41.4646 87.9164 41.7166C88.2044 41.8966 88.5224 42.0946 88.8704 42.3106C89.2184 42.5266 89.5544 42.7666 89.8784 43.0306C90.2024 43.2946 90.4664 43.6006 90.6704 43.9486C90.8744 44.2846 90.9764 44.6686 90.9764 45.1006C90.9764 45.7366 90.7964 46.3006 90.4364 46.7926C90.0884 47.2726 89.6324 47.6506 89.0684 47.9266C88.5164 48.1906 87.9284 48.3226 87.3044 48.3226C86.7164 48.3226 86.1464 48.2566 85.5944 48.1246C85.0544 47.9926 84.5684 47.8846 84.1364 47.8006C84.0644 47.4526 83.9984 47.0806 83.9384 46.6846C83.8904 46.2886 83.8484 45.9406 83.8124 45.6406C83.7884 45.3406 83.7764 45.1546 83.7764 45.0826C83.8364 45.0226 83.9024 44.9746 83.9744 44.9386C84.0584 44.8906 84.1424 44.8666 84.2264 44.8666C84.3344 44.8666 84.4004 44.9206 84.4244 45.0286C84.4604 45.1966 84.5324 45.4306 84.6404 45.7306C84.7604 46.0186 84.9284 46.3186 85.1444 46.6306C85.3724 46.9426 85.6604 47.2066 86.0084 47.4226C86.3684 47.6266 86.8124 47.7286 87.3404 47.7286C87.9044 47.7286 88.3964 47.5426 88.8164 47.1706C89.2364 46.7866 89.4464 46.2526 89.4464 45.5686C89.4464 45.0766 89.3324 44.6926 89.1044 44.4166C88.8884 44.1406 88.6004 43.9006 88.2404 43.6966C87.8924 43.4926 87.5144 43.2766 87.1064 43.0486C86.6624 42.7846 86.2004 42.4966 85.7204 42.1846C85.2524 41.8606 84.8564 41.4826 84.5324 41.0506C84.2084 40.6186 84.0464 40.1086 84.0464 39.5206C84.0464 38.8966 84.2084 38.3566 84.5324 37.9006C84.8684 37.4326 85.3004 37.0726 85.8284 36.8206C86.3564 36.5686 86.9144 36.4426 87.5024 36.4426Z" fill="white"/>
<path d="M52.7224 1C51.0085 6.87034 46.6359 13.812 43.3165 16.4237M43.3165 16.4237C43.1213 16.5772 42.9299 16.7158 42.7428 16.8383C41.6025 17.5849 40.2708 16.6599 41.2321 15.6916C41.2941 15.6292 41.3604 15.5689 41.43 15.5114C42.3329 14.7664 42.914 15.3775 43.3165 16.4237ZM43.3165 16.4237C43.6369 17.2566 43.844 18.3654 44.01 19.2852C44.2197 20.447 44.5663 21.5794 45.0424 22.6587L45.2344 23.0938C45.8052 24.3877 46.5193 25.6128 47.3629 26.746L48.745 28.6024L51.8386 32.164L53.1138 33.6627C54.0265 34.7355 54.7794 35.9359 55.3487 37.2264C55.9513 38.5921 56.3413 40.043 56.5051 41.528L56.5209 41.6712C56.6399 42.7501 56.6458 43.8386 56.5386 44.9188L56.4277 46.0355C56.3149 47.1724 56.0769 48.2931 55.7182 49.3771L55.6594 49.555C55.4694 50.1291 55.2392 50.6889 54.9705 51.2303C54.3597 52.461 53.5556 53.5848 52.5891 54.5583L51.8386 55.3144L49.6289 57.0952" stroke="white" stroke-width="0.8" stroke-linecap="round"/>
</svg>
