<svg width="157" height="12" viewBox="0 0 157 12" fill="none" xmlns="http://www.w3.org/2000/svg">
<path d="M6.058 7.595C6.058 8.14967 5.928 8.61767 5.668 8.999C5.408 9.37167 5.04833 9.65333 4.589 9.844C4.13833 10.0347 3.62267 10.13 3.042 10.13C2.68667 10.13 2.36167 10.1083 2.067 10.065C1.781 10.0303 1.521 9.987 1.287 9.935C1.06167 9.87433 0.849333 9.805 0.65 9.727V8.973C0.970667 9.103 1.33467 9.22 1.742 9.324C2.14933 9.41933 2.59133 9.467 3.068 9.467C3.51867 9.467 3.90867 9.39767 4.238 9.259C4.576 9.12033 4.836 8.91667 5.018 8.648C5.20867 8.37933 5.304 8.04133 5.304 7.634C5.304 7.26133 5.22167 6.958 5.057 6.724C4.901 6.49 4.65833 6.28633 4.329 6.113C4.00833 5.931 3.59233 5.749 3.081 5.567C2.72567 5.42833 2.405 5.28533 2.119 5.138C1.833 4.99067 1.586 4.81733 1.378 4.618C1.17867 4.41867 1.02267 4.18467 0.91 3.916C0.806 3.64733 0.754 3.32233 0.754 2.941C0.754 2.42967 0.875333 2.00067 1.118 1.654C1.36067 1.30733 1.69 1.043 2.106 0.861C2.53067 0.679 3.01167 0.588 3.549 0.588C3.98233 0.588 4.38533 0.631333 4.758 0.717999C5.13933 0.795999 5.50333 0.917333 5.85 1.082L5.603 1.732C5.25633 1.576 4.90967 1.459 4.563 1.381C4.21633 1.303 3.86967 1.264 3.523 1.264C3.12433 1.264 2.77333 1.329 2.47 1.459C2.17533 1.58033 1.94133 1.76667 1.768 2.018C1.60333 2.26067 1.521 2.564 1.521 2.928C1.521 3.32667 1.60333 3.64733 1.768 3.89C1.93267 4.13267 2.16667 4.33633 2.47 4.501C2.782 4.657 3.15467 4.81733 3.588 4.982C4.108 5.164 4.55 5.36333 4.914 5.58C5.28667 5.79667 5.56833 6.061 5.759 6.373C5.95833 6.685 6.058 7.09233 6.058 7.595ZM14.569 10H13.815V5.476H8.90104V10H8.14704V0.717999H8.90104V4.8H13.815V0.717999H14.569V10ZM24.6784 5.346C24.6784 6.05667 24.596 6.70233 24.4314 7.283C24.2667 7.86367 24.0197 8.37067 23.6904 8.804C23.361 9.22867 22.9494 9.558 22.4554 9.792C21.9614 10.0173 21.3894 10.13 20.7394 10.13C20.0807 10.13 19.5044 10.013 19.0104 9.779C18.5164 9.545 18.1047 9.21567 17.7754 8.791C17.446 8.36633 17.199 7.86367 17.0344 7.283C16.8784 6.69367 16.8004 6.04367 16.8004 5.333C16.8004 4.38833 16.9477 3.56067 17.2424 2.85C17.5457 2.13933 17.992 1.58467 18.5814 1.186C19.1707 0.778666 19.903 0.575 20.7784 0.575C21.619 0.575 22.3297 0.77 22.9104 1.16C23.491 1.54133 23.9287 2.08733 24.2234 2.798C24.5267 3.50867 24.6784 4.358 24.6784 5.346ZM17.5934 5.333C17.5934 6.165 17.706 6.88867 17.9314 7.504C18.1567 8.11933 18.5034 8.60033 18.9714 8.947C19.4394 9.29367 20.033 9.467 20.7524 9.467C21.4717 9.467 22.061 9.298 22.5204 8.96C22.9884 8.61333 23.3307 8.13233 23.5474 7.517C23.7727 6.90167 23.8854 6.178 23.8854 5.346C23.8854 4.05467 23.6254 3.04933 23.1054 2.33C22.5854 1.61067 21.8097 1.251 20.7784 1.251C20.059 1.251 19.461 1.42 18.9844 1.758C18.5164 2.096 18.1654 2.57267 17.9314 3.188C17.706 3.80333 17.5934 4.51833 17.5934 5.333ZM29.1072 0.717999C30.1645 0.717999 30.9532 0.934666 31.4732 1.368C31.9932 1.80133 32.2532 2.46 32.2532 3.344C32.2532 3.786 32.1839 4.18467 32.0452 4.54C31.9152 4.89533 31.7115 5.19867 31.4342 5.45C31.1655 5.69267 30.8232 5.879 30.4072 6.009C29.9912 6.139 29.4972 6.204 28.9252 6.204H27.6642V10H26.9102V0.717999H29.1072ZM29.0292 1.381H27.6642V5.554H28.8342C29.3889 5.554 29.8612 5.489 30.2512 5.359C30.6499 5.22033 30.9532 4.995 31.1612 4.683C31.3692 4.36233 31.4732 3.929 31.4732 3.383C31.4732 2.68967 31.2739 2.18267 30.8752 1.862C30.4852 1.54133 29.8699 1.381 29.0292 1.381ZM43.3511 5.398C43.3511 5.82267 43.3078 6.22567 43.2211 6.607C43.1431 6.98833 43.0175 7.33067 42.8441 7.634C42.6795 7.92867 42.4715 8.16267 42.2201 8.336C41.9775 8.50933 41.6828 8.596 41.3361 8.596C40.9635 8.596 40.6645 8.48333 40.4391 8.258C40.2138 8.024 40.0881 7.72067 40.0621 7.348H40.0101C39.8628 7.75533 39.6288 8.06733 39.3081 8.284C38.9961 8.492 38.6321 8.596 38.2161 8.596C37.6008 8.596 37.1285 8.388 36.7991 7.972C36.4698 7.556 36.3051 6.97967 36.3051 6.243C36.3051 5.67967 36.4091 5.18133 36.6171 4.748C36.8338 4.306 37.1371 3.95933 37.5271 3.708C37.9258 3.45667 38.3851 3.331 38.9051 3.331C39.2345 3.331 39.5508 3.36133 39.8541 3.422C40.1661 3.474 40.4305 3.539 40.6471 3.617L40.5301 5.879C40.5215 6.035 40.5128 6.18667 40.5041 6.334C40.5041 6.47267 40.5041 6.607 40.5041 6.737C40.5041 7.19633 40.5778 7.53 40.7251 7.738C40.8725 7.93733 41.0848 8.037 41.3621 8.037C41.6655 8.037 41.9168 7.92 42.1161 7.686C42.3241 7.452 42.4801 7.13567 42.5841 6.737C42.6881 6.33833 42.7401 5.892 42.7401 5.398C42.7401 4.566 42.5841 3.84667 42.2721 3.24C41.9601 2.63333 41.5225 2.16967 40.9591 1.849C40.3958 1.51967 39.7285 1.355 38.9571 1.355C38.2638 1.355 37.6398 1.472 37.0851 1.706C36.5305 1.93133 36.0581 2.26067 35.6681 2.694C35.2781 3.12733 34.9791 3.64733 34.7711 4.254C34.5631 4.86067 34.4591 5.54533 34.4591 6.308C34.4591 7.218 34.6108 7.998 34.9141 8.648C35.2175 9.28933 35.6595 9.779 36.2401 10.117C36.8208 10.4637 37.5228 10.637 38.3461 10.637C38.7881 10.637 39.2301 10.585 39.6721 10.481C40.1228 10.377 40.5301 10.247 40.8941 10.091V10.715C40.5475 10.871 40.1575 10.9967 39.7241 11.092C39.2995 11.1873 38.8401 11.235 38.3461 11.235C37.4101 11.235 36.6041 11.0357 35.9281 10.637C35.2521 10.247 34.7321 9.68367 34.3681 8.947C34.0041 8.21033 33.8221 7.33933 33.8221 6.334C33.8221 5.48467 33.9435 4.71767 34.1861 4.033C34.4288 3.34833 34.7755 2.76333 35.2261 2.278C35.6768 1.79267 36.2141 1.42 36.8381 1.16C37.4708 0.9 38.1771 0.77 38.9571 0.77C39.6158 0.77 40.2138 0.878333 40.7511 1.095C41.2885 1.303 41.7521 1.61067 42.1421 2.018C42.5321 2.41667 42.8311 2.902 43.0391 3.474C43.2471 4.046 43.3511 4.68733 43.3511 5.398ZM36.9681 6.256C36.9681 6.84533 37.0808 7.29167 37.3061 7.595C37.5401 7.88967 37.8738 8.037 38.3071 8.037C38.8098 8.037 39.1868 7.85067 39.4381 7.478C39.6981 7.09667 39.8498 6.555 39.8931 5.853L39.9841 4.059C39.8368 4.007 39.6721 3.968 39.4901 3.942C39.3168 3.916 39.1261 3.903 38.9181 3.903C38.4935 3.903 38.1381 4.007 37.8521 4.215C37.5661 4.423 37.3451 4.70467 37.1891 5.06C37.0418 5.40667 36.9681 5.80533 36.9681 6.256ZM45.4956 10V0.717999H46.2496V9.324H50.3186V10H45.4956ZM57.5379 10L56.3939 6.802H52.7799L51.6359 10H50.8559L54.2749 0.692H54.9769L58.3179 10H57.5379ZM55.0159 2.772C54.9899 2.68533 54.9509 2.56833 54.8989 2.421C54.8469 2.27367 54.7949 2.11767 54.7429 1.953C54.6996 1.78833 54.6562 1.641 54.6129 1.511C54.5696 1.65833 54.5219 1.81 54.4699 1.966C54.4266 2.122 54.3789 2.26933 54.3269 2.408C54.2836 2.54667 54.2446 2.67233 54.2099 2.785L53.0269 6.126H56.1599L55.0159 2.772ZM66.5237 5.268C66.5237 6.308 66.3504 7.179 66.0037 7.881C65.6571 8.583 65.1457 9.11167 64.4697 9.467C63.7937 9.82233 62.9617 10 61.9737 10H59.8027V0.717999H62.2467C63.1654 0.717999 63.9411 0.891333 64.5737 1.238C65.2151 1.58467 65.7004 2.096 66.0297 2.772C66.3591 3.448 66.5237 4.28 66.5237 5.268ZM65.7307 5.294C65.7307 4.41867 65.5964 3.695 65.3277 3.123C65.0677 2.54233 64.6691 2.109 64.1317 1.823C63.5944 1.52833 62.9184 1.381 62.1037 1.381H60.5567V9.337H61.9347C63.2087 9.337 64.1577 9.00333 64.7817 8.336C65.4144 7.66 65.7307 6.646 65.7307 5.294ZM70.7245 5.684L73.1945 0.717999H74.0135L71.1145 6.412V10H70.3605V6.464L67.4355 0.717999H68.2675L70.7245 5.684ZM80.3296 7.595C80.3296 8.14967 80.1996 8.61767 79.9396 8.999C79.6796 9.37167 79.32 9.65333 78.8606 9.844C78.41 10.0347 77.8943 10.13 77.3136 10.13C76.9583 10.13 76.6333 10.1083 76.3386 10.065C76.0526 10.0303 75.7926 9.987 75.5586 9.935C75.3333 9.87433 75.121 9.805 74.9216 9.727V8.973C75.2423 9.103 75.6063 9.22 76.0136 9.324C76.421 9.41933 76.863 9.467 77.3396 9.467C77.7903 9.467 78.1803 9.39767 78.5096 9.259C78.8476 9.12033 79.1076 8.91667 79.2896 8.648C79.4803 8.37933 79.5756 8.04133 79.5756 7.634C79.5756 7.26133 79.4933 6.958 79.3286 6.724C79.1726 6.49 78.93 6.28633 78.6006 6.113C78.28 5.931 77.864 5.749 77.3526 5.567C76.9973 5.42833 76.6766 5.28533 76.3906 5.138C76.1046 4.99067 75.8576 4.81733 75.6496 4.618C75.4503 4.41867 75.2943 4.18467 75.1816 3.916C75.0776 3.64733 75.0256 3.32233 75.0256 2.941C75.0256 2.42967 75.147 2.00067 75.3896 1.654C75.6323 1.30733 75.9616 1.043 76.3776 0.861C76.8023 0.679 77.2833 0.588 77.8206 0.588C78.254 0.588 78.657 0.631333 79.0296 0.717999C79.411 0.795999 79.775 0.917333 80.1216 1.082L79.8746 1.732C79.528 1.576 79.1813 1.459 78.8346 1.381C78.488 1.303 78.1413 1.264 77.7946 1.264C77.396 1.264 77.045 1.329 76.7416 1.459C76.447 1.58033 76.213 1.76667 76.0396 2.018C75.875 2.26067 75.7926 2.564 75.7926 2.928C75.7926 3.32667 75.875 3.64733 76.0396 3.89C76.2043 4.13267 76.4383 4.33633 76.7416 4.501C77.0536 4.657 77.4263 4.81733 77.8596 4.982C78.3796 5.164 78.8216 5.36333 79.1856 5.58C79.5583 5.79667 79.84 6.061 80.0306 6.373C80.23 6.685 80.3296 7.09233 80.3296 7.595ZM81.6907 6.828V6.165H84.6417V6.828H81.6907ZM87.3682 10H86.6142V0.717999H91.4112V1.394H87.3682V5.216H91.1902V5.892H87.3682V10ZM98.2756 10L97.1316 6.802H93.5176L92.3736 10H91.5936L95.0126 0.692H95.7146L99.0556 10H98.2756ZM95.7536 2.772C95.7276 2.68533 95.6886 2.56833 95.6366 2.421C95.5846 2.27367 95.5326 2.11767 95.4806 1.953C95.4373 1.78833 95.394 1.641 95.3506 1.511C95.3073 1.65833 95.2596 1.81 95.2076 1.966C95.1643 2.122 95.1166 2.26933 95.0646 2.408C95.0213 2.54667 94.9823 2.67233 94.9476 2.785L93.7646 6.126H96.8976L95.7536 2.772ZM105.376 7.595C105.376 8.14967 105.246 8.61767 104.986 8.999C104.726 9.37167 104.367 9.65333 103.907 9.844C103.457 10.0347 102.941 10.13 102.36 10.13C102.005 10.13 101.68 10.1083 101.385 10.065C101.099 10.0303 100.839 9.987 100.605 9.935C100.38 9.87433 100.168 9.805 99.9685 9.727V8.973C100.289 9.103 100.653 9.22 101.06 9.324C101.468 9.41933 101.91 9.467 102.386 9.467C102.837 9.467 103.227 9.39767 103.556 9.259C103.894 9.12033 104.154 8.91667 104.336 8.648C104.527 8.37933 104.622 8.04133 104.622 7.634C104.622 7.26133 104.54 6.958 104.375 6.724C104.219 6.49 103.977 6.28633 103.647 6.113C103.327 5.931 102.911 5.749 102.399 5.567C102.044 5.42833 101.723 5.28533 101.437 5.138C101.151 4.99067 100.904 4.81733 100.696 4.618C100.497 4.41867 100.341 4.18467 100.228 3.916C100.124 3.64733 100.072 3.32233 100.072 2.941C100.072 2.42967 100.194 2.00067 100.436 1.654C100.679 1.30733 101.008 1.043 101.424 0.861C101.849 0.679 102.33 0.588 102.867 0.588C103.301 0.588 103.704 0.631333 104.076 0.717999C104.458 0.795999 104.822 0.917333 105.168 1.082L104.921 1.732C104.575 1.576 104.228 1.459 103.881 1.381C103.535 1.303 103.188 1.264 102.841 1.264C102.443 1.264 102.092 1.329 101.788 1.459C101.494 1.58033 101.26 1.76667 101.086 2.018C100.922 2.26067 100.839 2.564 100.839 2.928C100.839 3.32667 100.922 3.64733 101.086 3.89C101.251 4.13267 101.485 4.33633 101.788 4.501C102.1 4.657 102.473 4.81733 102.906 4.982C103.426 5.164 103.868 5.36333 104.232 5.58C104.605 5.79667 104.887 6.061 105.077 6.373C105.277 6.685 105.376 7.09233 105.376 7.595ZM113.888 10H113.134V5.476H108.22V10H107.466V0.717999H108.22V4.8H113.134V0.717999H113.888V10ZM118.589 10H115.976V9.532L116.899 9.389V1.342L115.976 1.186V0.717999H118.589V1.186L117.653 1.342V9.389L118.589 9.532V10ZM128.091 5.346C128.091 6.05667 128.008 6.70233 127.844 7.283C127.679 7.86367 127.432 8.37067 127.103 8.804C126.773 9.22867 126.362 9.558 125.868 9.792C125.374 10.0173 124.802 10.13 124.152 10.13C123.493 10.13 122.917 10.013 122.423 9.779C121.929 9.545 121.517 9.21567 121.188 8.791C120.858 8.36633 120.611 7.86367 120.447 7.283C120.291 6.69367 120.213 6.04367 120.213 5.333C120.213 4.38833 120.36 3.56067 120.655 2.85C120.958 2.13933 121.404 1.58467 121.994 1.186C122.583 0.778666 123.315 0.575 124.191 0.575C125.031 0.575 125.742 0.77 126.323 1.16C126.903 1.54133 127.341 2.08733 127.636 2.798C127.939 3.50867 128.091 4.358 128.091 5.346ZM121.006 5.333C121.006 6.165 121.118 6.88867 121.344 7.504C121.569 8.11933 121.916 8.60033 122.384 8.947C122.852 9.29367 123.445 9.467 124.165 9.467C124.884 9.467 125.473 9.298 125.933 8.96C126.401 8.61333 126.743 8.13233 126.96 7.517C127.185 6.90167 127.298 6.178 127.298 5.346C127.298 4.05467 127.038 3.04933 126.518 2.33C125.998 1.61067 125.222 1.251 124.191 1.251C123.471 1.251 122.873 1.42 122.397 1.758C121.929 2.096 121.578 2.57267 121.344 3.188C121.118 3.80333 121.006 4.51833 121.006 5.333ZM136.836 10H136.017L131.012 1.888H130.973C130.973 2.06133 130.977 2.239 130.986 2.421C130.994 2.59433 130.999 2.77633 130.999 2.967C131.007 3.15767 131.012 3.35267 131.012 3.552C131.02 3.74267 131.025 3.93767 131.025 4.137V10H130.323V0.717999H131.142L136.134 8.804H136.173C136.164 8.674 136.155 8.52233 136.147 8.349C136.147 8.167 136.142 7.97633 136.134 7.777C136.134 7.57767 136.129 7.37833 136.121 7.179C136.121 6.97967 136.121 6.789 136.121 6.607V0.717999H136.836V10ZM139.273 9.506C139.273 9.28933 139.32 9.129 139.416 9.025C139.511 8.921 139.645 8.869 139.819 8.869C140.001 8.869 140.139 8.921 140.235 9.025C140.339 9.129 140.391 9.28933 140.391 9.506C140.391 9.714 140.339 9.87433 140.235 9.987C140.139 10.091 140.001 10.143 139.819 10.143C139.645 10.143 139.511 10.091 139.416 9.987C139.32 9.87433 139.273 9.714 139.273 9.506ZM145.011 0.717999C145.713 0.717999 146.298 0.804666 146.766 0.978C147.234 1.14267 147.581 1.41133 147.806 1.784C148.04 2.15667 148.157 2.65067 148.157 3.266C148.157 3.74267 148.075 4.15 147.91 4.488C147.746 4.81733 147.525 5.09033 147.247 5.307C146.97 5.515 146.658 5.67533 146.311 5.788L148.716 10H147.819L145.596 5.996H143.568V10H142.814V0.717999H145.011ZM144.946 1.381H143.568V5.346H145.167C145.644 5.346 146.043 5.268 146.363 5.112C146.693 4.956 146.944 4.72633 147.117 4.423C147.291 4.111 147.377 3.734 147.377 3.292C147.377 2.81533 147.286 2.43833 147.104 2.161C146.931 1.88367 146.662 1.68433 146.298 1.563C145.943 1.44167 145.492 1.381 144.946 1.381ZM156.925 6.724C156.925 7.43467 156.795 8.04567 156.535 8.557C156.275 9.05967 155.898 9.44967 155.404 9.727C154.91 9.99567 154.307 10.13 153.597 10.13C152.548 10.13 151.742 9.831 151.179 9.233C150.624 8.62633 150.347 7.78133 150.347 6.698V0.717999H151.088V6.698C151.088 7.59933 151.304 8.28833 151.738 8.765C152.18 9.233 152.812 9.467 153.636 9.467C154.19 9.467 154.654 9.363 155.027 9.155C155.399 8.93833 155.681 8.63067 155.872 8.232C156.071 7.82467 156.171 7.33933 156.171 6.776V0.717999H156.925V6.724Z" fill="white"/>
</svg>
