<svg width="18" height="14" viewBox="0 0 18 14" fill="none" xmlns="http://www.w3.org/2000/svg">
<path d="M14.8334 0.333496H3.16675C2.50371 0.333496 1.86782 0.596888 1.39898 1.06573C0.93014 1.53457 0.666748 2.17045 0.666748 2.8335V11.1668C0.666748 11.8299 0.93014 12.4658 1.39898 12.9346C1.86782 13.4034 2.50371 13.6668 3.16675 13.6668H14.8334C15.4965 13.6668 16.1323 13.4034 16.6012 12.9346C17.07 12.4658 17.3334 11.8299 17.3334 11.1668V2.8335C17.3334 2.17045 17.07 1.53457 16.6012 1.06573C16.1323 0.596888 15.4965 0.333496 14.8334 0.333496ZM3.16675 2.00016H14.8334C15.0544 2.00016 15.2664 2.08796 15.4227 2.24424C15.579 2.40052 15.6667 2.61248 15.6667 2.8335L9.00008 6.90016L2.33341 2.8335C2.33341 2.61248 2.42121 2.40052 2.57749 2.24424C2.73377 2.08796 2.94573 2.00016 3.16675 2.00016ZM15.6667 11.1668C15.6667 11.3878 15.579 11.5998 15.4227 11.7561C15.2664 11.9124 15.0544 12.0002 14.8334 12.0002H3.16675C2.94573 12.0002 2.73377 11.9124 2.57749 11.7561C2.42121 11.5998 2.33341 11.3878 2.33341 11.1668V4.7335L8.56675 8.54183C8.69343 8.61497 8.83713 8.65347 8.98341 8.65347C9.12969 8.65347 9.2734 8.61497 9.40008 8.54183L15.6667 4.7335V11.1668Z" fill="white"/>
</svg>
