<svg width="18" height="17" viewBox="0 0 18 17" fill="none" xmlns="http://www.w3.org/2000/svg">
<path d="M17.0918 15.4085L14.0002 12.3418C15.2002 10.8455 15.7814 8.94625 15.6242 7.03458C15.4669 5.12292 14.5832 3.34415 13.1548 2.06403C11.7263 0.78392 9.86167 0.0997562 7.94427 0.152223C6.02686 0.20469 4.20243 0.989799 2.84612 2.34612C1.4898 3.70243 0.70469 5.52686 0.652223 7.44427C0.599756 9.36167 1.28392 11.2263 2.56403 12.6548C3.84415 14.0832 5.62292 14.9669 7.53458 15.1242C9.44625 15.2814 11.3455 14.7002 12.8418 13.5002L15.9085 16.5668C15.986 16.6449 16.0781 16.7069 16.1797 16.7492C16.2812 16.7915 16.3902 16.8133 16.5002 16.8133C16.6102 16.8133 16.7191 16.7915 16.8206 16.7492C16.9222 16.7069 17.0144 16.6449 17.0918 16.5668C17.242 16.4114 17.326 16.2038 17.326 15.9877C17.326 15.7716 17.242 15.5639 17.0918 15.4085ZM8.16683 13.5002C7.01311 13.5002 5.88529 13.158 4.926 12.5171C3.96672 11.8761 3.21904 10.9651 2.77753 9.89915C2.33602 8.83325 2.2205 7.66036 2.44558 6.5288C2.67066 5.39725 3.22624 4.35785 4.04204 3.54204C4.85785 2.72624 5.89725 2.17066 7.0288 1.94558C8.16036 1.7205 9.33325 1.83602 10.3992 2.27753C11.4651 2.71904 12.3761 3.46672 13.0171 4.426C13.658 5.38529 14.0002 6.51311 14.0002 7.66683C14.0002 9.21393 13.3856 10.6977 12.2916 11.7916C11.1977 12.8856 9.71393 13.5002 8.16683 13.5002Z" fill="#6D6D6D"/>
</svg>
